<?xml version="1.0" encoding="UTF-8" standalone="no"?>
<svg
   xmlns:dc="http://purl.org/dc/elements/1.1/"
   xmlns:cc="http://creativecommons.org/ns#"
   xmlns:rdf="http://www.w3.org/1999/02/22-rdf-syntax-ns#"
   xmlns:svg="http://www.w3.org/2000/svg"
   xmlns="http://www.w3.org/2000/svg"
   id="svg8"
   version="1.1"
   viewBox="0 0 713.87635 365.7298"
   height="365.7298mm"
   width="713.87634mm">
  <defs
     id="defs2" />
  <metadata
     id="metadata5">
    <rdf:RDF>
      <cc:Work
         rdf:about="">
        <dc:format>image/svg+xml</dc:format>
        <dc:type
           rdf:resource="http://purl.org/dc/dcmitype/StillImage" />
        <dc:title></dc:title>
      </cc:Work>
    </rdf:RDF>
  </metadata>
  <g
     transform="translate(252.70621,297.09473)"
     id="layer1">
    <path
       id="rect23"
       d="M -252.70621,-297.09473 V -0.86479433 h -0.0207 V 70.762243 l 0.74104,-1.68182 h -5.2e-4 c 0.40774,-0.925161 1.37935,-2.000517 2.15904,-2.389271 0.77969,-0.388752 1.06269,-0.80139 0.62891,-0.91712 -0.43378,-0.115757 -0.0211,-0.593003 0.91725,-1.060874 1.23223,-0.614399 1.2484,-0.775201 0.0589,-0.579043 -1.16751,0.192543 -1.34626,-0.04696 -0.61288,-0.821479 0.56902,-0.600938 1.08318,-2.523385 1.14205,-4.272616 0.0589,-1.749232 0.5946,-3.180788 1.19063,-3.181075 0.59604,-2.89e-4 1.13938,0.650278 1.20767,1.445514 0.1356,1.578975 0.42108,2.49002 1.96216,6.265461 0.95029,2.328092 2.63457,3.495346 4.37389,3.03122 0.90234,-0.24081 2.16913,-2.950977 2.62,-5.605623 0.45405,-2.67337 1.87261,-2.909414 3.06544,-0.509983 1.01535,2.042473 3.15841,2.345247 3.51038,0.495658 0.27587,-1.449732 0.82744,-2.139399 2.17041,-2.713047 0.65018,-0.277711 0.44356,-0.48183 -0.48731,-0.48183 -0.88851,0 -1.2946,-0.138253 -0.90278,-0.307435 0.39182,-0.169157 0.14232,-0.553877 -0.55449,-0.854712 -0.75987,-0.328099 -0.66308,-0.741627 0.24236,-1.032747 1.29527,-0.416462 2.35617,-3.526616 2.59416,-7.605118 0.12522,-2.145999 1.6121,-0.69742 2.19056,2.134029 0.81593,3.993833 2.30586,8.979189 2.87683,9.626588 1.23403,1.399159 2.65741,2.280297 3.68349,2.280297 2.91219,0 10.48576,-2.417974 10.81588,-3.453182 0.35594,-1.116186 0.32353,-1.121188 -3.42976,-0.527897 l -3.78944,0.599 4.05454,-1.007683 c 2.22977,-0.554348 3.53009,-1.013209 2.88974,-1.01994 -0.64035,-0.0068 -0.0666,-0.235232 1.27538,-0.507416 2.45697,-0.498355 2.71769,-1.215129 0.74724,-2.056274 -0.58665,-0.250422 -0.39534,-0.566448 0.4253,-0.701793 0.82064,-0.135346 1.1457,-0.395249 0.72243,-0.577997 -0.42329,-0.182748 -0.10899,-0.441236 0.69867,-0.574434 2.21622,-0.365497 1.76756,-1.359903 -0.5085,-1.126844 -1.16721,0.119501 -2.29089,-0.11725 -2.74195,-0.577499 -0.42028,-0.428875 -0.34297,-0.765172 0.17156,-0.74731 4.95313,0.171958 5.6931,-0.427513 2.52647,-2.047056 -1.43738,-0.735132 -1.5615,-1.142479 -0.43925,-1.441953 0.86029,-0.229549 1.7506,-0.722901 1.97817,-1.09615 1.44294,-2.366695 1.43592,-3.444409 -0.0248,-3.933493 -1.28092,-0.428901 -1.24762,-0.489896 0.14572,-0.266502 1.67543,0.268597 2.61336,-0.453439 1.89601,-1.45984 -0.13895,-0.194952 0.78994,-0.123691 2.06448,0.15855 1.65214,0.36589 1.83848,0.592165 0.64957,0.788243 -1.25985,0.207759 -1.25929,0.342398 0.002,0.550394 1.18763,0.195842 1.22636,0.417692 0.13436,0.768784 -0.8442,0.271426 -1.24888,0.906855 -0.89968,1.411758 0.34921,0.504928 0.68302,1.058096 0.74207,1.229663 0.0591,0.171565 0.71281,0.212028 1.45262,0.09004 0.73981,-0.122016 1.8155,-0.01864 2.39056,0.229653 0.653,0.281953 0.41914,0.348291 -0.62271,0.176489 -0.91745,-0.151321 -1.66811,-0.09161 -1.66811,0.132989 0,0.224572 0.75852,0.408683 1.68569,0.408683 0.92716,0 1.26817,0.11133 0.75757,0.247567 -0.51061,0.136262 -1.88695,0.03546 -3.05873,-0.224023 -1.83197,-0.405724 -2.02243,-0.265088 -1.35702,1.005117 0.42561,0.812442 1.142,1.737656 1.59163,2.05575 1.68952,1.195224 1.49965,1.485454 -0.84542,1.293591 -1.96459,-0.160723 -1.93385,-0.117982 0.17312,0.242984 1.40745,0.241098 2.20918,0.589389 1.7818,0.773892 -0.42735,0.184529 0.53036,0.58017 2.12803,0.87878 1.59766,0.298609 2.46877,0.659313 1.9358,0.801547 -0.53296,0.142208 0.28399,0.525488 1.8154,0.851648 2.21755,0.472323 1.75449,0.460722 -2.27325,-0.05678 l -5.05706,-0.650122 2.88975,0.889518 c 2.60053,0.800239 2.62929,0.863616 0.28629,0.635298 -1.76799,-0.172325 -2.2714,-0.109969 -1.5689,0.19333 0.69719,0.301019 0.22607,0.363427 -1.44487,0.192333 -1.55993,-0.159729 -2.12954,-0.102374 -1.53583,0.153967 0.51901,0.224074 1.74464,0.325322 2.72387,0.22507 0.97922,-0.100279 1.78025,0.0612 1.78025,0.35908 0,0.297877 -0.64239,0.541673 -1.42782,0.541673 -0.78543,0 -0.25141,0.347242 1.18701,0.771351 1.4384,0.424135 2.06347,0.770854 1.38855,0.770854 -0.67494,0 1.01245,0.443044 3.74964,0.984663 2.90678,0.575142 4.80094,1.256927 4.55476,1.63887 -0.31987,0.496233 -0.10876,0.53096 0.87385,0.143727 0.71216,-0.280644 1.03529,-0.974607 0.7183,-1.542207 -1.28478,-2.300409 -1.2842,-2.593545 0.007,-3.056257 0.87757,-0.314611 0.76371,-0.482353 -0.32814,-0.482353 -1.20599,0 -1.25518,-0.208074 -0.17673,-0.745765 0.8227,-0.410202 1.49551,-1.190956 1.49551,-1.735037 0,-0.544107 0.58067,-0.989272 1.29036,-0.989272 1.71639,0 3.27753,1.130197 2.20245,1.594374 -0.46834,0.202207 0.0172,0.653553 1.07901,1.003074 1.64724,0.542222 1.61264,0.587922 -0.23668,0.312019 -1.69935,-0.253538 -1.802,-0.217763 -0.47439,0.165726 0.93128,0.269015 1.3085,0.756843 0.83819,1.083893 -0.62727,0.436182 -0.30824,0.506552 1.19682,0.264433 1.75133,-0.281717 1.761,-0.234577 0.0682,0.322258 -1.0907,0.358793 -1.32272,0.652165 -0.51573,0.652165 0.807,0 1.82875,0.251286 2.27066,0.55859 0.53702,0.373433 0.10908,0.488036 -1.29036,0.344756 -3.02009,-0.309243 -2.5778,0.09807 1.15755,1.066478 1.78811,0.463575 2.43825,0.720072 1.44487,0.570349 -2.12987,-0.321054 -2.47738,0.388072 -0.36121,0.737069 0.79471,0.131077 1.44487,0.423088 1.44487,0.648603 0,0.246781 -1.00653,0.201972 -2.52853,-0.112535 -2.38553,-0.49296 -2.39124,-0.47929 -0.10284,0.241936 1.3341,0.420469 2.51474,0.93781 2.62362,1.149865 0.10887,0.212081 1.61795,0.614923 3.3538,0.89465 1.73586,0.279728 2.17757,0.43118 0.98133,0.337082 -1.19625,-0.09412 -3.01022,0.06754 -4.03076,0.359081 -2.21133,0.631657 -1.70566,0.653945 3.30833,0.145245 2.08633,-0.211661 3.40314,-0.553535 2.92592,-0.759566 -0.47721,-0.206058 1.53396,-0.642527 4.46949,-0.96984 2.93555,-0.327287 4.90674,-0.710095 4.3801,-0.850627 -0.52664,-0.140531 0.29134,-0.61487 1.81797,-1.054745 2.28454,-0.658214 2.43703,-0.882185 0.86196,-1.265464 -1.50504,-0.36623 -2.29274,-0.344126 -3.68918,0.104862 -1.46459,0.470909 -1.36002,0.528708 0.59635,0.328386 1.31882,-0.135031 2.37143,-0.05369 2.37143,0.183639 0,0.234761 -1.06622,0.427095 -2.36936,0.427095 -1.30312,0 -3.15427,0.286117 -4.11396,0.636319 -0.9959,0.363429 -2.11916,0.475544 -2.61638,0.260872 -0.47915,-0.206869 2.07319,-1.274237 5.67149,-2.371854 6.3957,-1.950942 6.95788,-2.537738 1.34617,-1.405132 -1.54264,0.311364 -3.45517,0.566264 -4.24987,0.566264 -0.79471,0 -0.18252,-0.246336 1.36012,-0.547329 1.54263,-0.300993 2.83398,-0.778187 2.87011,-1.06035 0.0361,-0.282163 0.84883,-0.46939 1.80609,-0.416382 0.95728,0.05303 1.74047,-0.158628 1.74047,-0.470071 0,-0.374585 -0.85576,-0.48416 -2.52853,-0.323777 -1.89758,0.181909 -1.62718,-0.02915 1.08365,-0.845521 1.98678,-0.598319 2.71552,-0.948783 1.61902,-0.779024 -1.36485,0.211269 -1.78071,0.139589 -1.31826,-0.227114 0.37155,-0.294602 -0.35669,-0.754878 -1.61851,-1.02303 -1.26182,-0.268151 -1.64428,-0.464492 -0.84956,-0.436312 4.8598,0.172352 6.60525,-0.05984 5.26428,-0.699227 -1.00292,-0.478215 -0.72526,-0.796257 1.01234,-1.162147 2.07851,-0.437701 1.8227,-0.476932 -1.942,-0.296671 -3.80656,0.182277 -3.93856,0.161037 -1.08365,-0.174421 1.78811,-0.210116 3.25148,-0.484344 3.25148,-0.609738 0,-0.125368 -0.65016,-0.120837 -1.44487,0.01024 -0.79473,0.131051 -1.44539,0.05476 -1.44539,-0.169811 0,-0.224598 0.65066,-0.408708 1.44539,-0.408708 0.79471,0 1.44487,-0.34672 1.44487,-0.770828 0,-0.424135 0.68853,-0.771379 1.53014,-0.771379 0.84161,0 1.20935,-0.138226 0.81752,-0.307408 -0.39181,-0.169157 -0.17583,-0.539316 0.48007,-0.8225 0.83983,-0.362616 1.48438,-0.160252 2.1792,0.68388 0.54262,0.659262 0.57225,1.377187 0.0656,1.595919 -0.50661,0.218733 0.0836,0.500869 1.31154,0.626578 1.6763,0.17167 1.87779,0.405095 0.80977,0.937601 -0.94463,0.471013 -0.92778,0.790653 0.0501,0.951926 0.80982,0.133539 1.12609,0.392681 0.7028,0.575457 -0.42328,0.182748 -0.0981,0.44265 0.72244,0.577995 0.82064,0.135347 1.05728,0.434349 0.52555,0.663924 -0.53173,0.229601 0.23221,0.65117 1.69757,0.937103 2.50395,0.488561 2.45196,0.520432 -0.863,0.531458 -3.11016,0.01032 -3.22612,0.05848 -0.97875,0.407662 2.20587,0.342738 2.2718,0.47028 0.48989,0.945772 -1.13241,0.302171 -1.71588,0.899522 -1.29656,1.327375 0.48865,0.498643 0.0535,0.779837 -1.21233,0.783635 -2.88628,0.0086 1.66149,0.751369 4.64778,0.759068 2.60066,0.0068 2.4312,0.243979 3.30419,-4.620959 1.60458,-8.941739 3.53724,-13.651821 3.98115,-9.703322 0.37061,3.296596 0.82139,4.516596 1.9141,5.179524 0.61751,0.374663 0.81986,1.1033 0.4501,1.619437 -0.39949,0.557648 -0.0262,0.907352 0.91984,0.861391 0.87698,-0.04261 1.42182,0.335903 1.21284,0.842979 -0.36294,0.88056 -0.0799,0.911777 6.50245,0.71253 l 6.78977,-0.205637 c 0.0533,-0.05073 0.0525,-0.09476 -0.0253,-0.12838 -0.4338,-0.187306 0.34299,-0.456348 1.726,-0.597953 2.31236,-0.236777 2.29056,-0.279099 -0.26975,-0.526352 -1.54775,-0.149461 -4.54882,-0.02954 -6.75773,0.270065 -2.18547,0.296462 -3.9734,0.45234 -3.9734,0.3463 0,-0.269173 9.16103,-1.544851 10.43244,-1.452692 0.5723,0.04151 1.7861,-0.295701 2.69699,-0.74985 1.4576,-0.726777 1.33262,-0.79589 -1.04076,-0.57391 -2.5352,0.237091 -2.54512,0.220774 -0.16795,-0.273154 3.39967,-0.706402 3.2189,-1.144313 -0.26665,-0.64656 -1.53718,0.219544 -3.6502,0.38726 -4.69584,0.372909 -1.04564,-0.01435 -0.47618,-0.209698 1.26556,-0.43427 1.74174,-0.224599 3.4818,-0.62718 3.86643,-0.894651 0.38465,-0.267445 -2.17866,-0.05754 -5.69578,0.467006 -7.79223,1.162148 -8.39503,0.892975 -1.00201,-0.447547 2.96599,-0.537823 4.5687,-0.978011 3.56154,-0.978011 -1.00713,0 -3.43361,0.280539 -5.39243,0.623016 -4.11546,0.719549 -4.59897,0.480284 -1.18184,-0.584649 1.32933,-0.414287 3.34743,-0.6425 4.57181,-0.517132 1.45214,0.148676 1.8318,0.06885 1.125,-0.236332 -0.5868,-0.253354 -0.531,-0.435475 0.12402,-0.405122 3.94588,0.182932 5.13208,-0.04486 3.30213,-0.633229 -1.48208,-0.476539 -2.095,-0.49571 -3.04478,-0.09617 -0.65401,0.275118 -1.19912,0.349207 -1.21129,0.164181 -0.0116,-0.185002 -0.99748,-0.120759 -2.18953,0.143229 -1.59991,0.354313 -2.16731,0.36162 -2.16731,0.02763 0,-0.24885 2.23119,-0.701059 4.95835,-1.005117 5.29095,-0.589912 9.34242,-1.700807 4.3093,-1.181579 -1.52111,0.156925 -4.71622,0.357718 -7.10034,0.446029 -3.43834,0.127358 -3.64478,0.101954 -0.99839,-0.123273 1.835,-0.156193 3.35328,-0.458024 3.37395,-0.670078 0.0207,-0.212055 0.79503,-0.635377 1.72083,-0.941163 1.35228,-0.446657 1.25698,-0.496993 -0.48421,-0.255764 -1.19207,0.16515 -0.54191,-0.05785 1.44487,-0.495657 3.29555,-0.726201 3.03115,-1.029185 -0.72244,-0.827109 -0.79472,0.0428 -0.90307,-0.06676 -0.24081,-0.243481 0.66227,-0.176699 1.96311,-0.321211 2.89026,-0.321211 0.92717,0 1.90543,-0.414759 2.17403,-0.921756 0.35447,-0.669031 -0.0746,-0.864141 -1.56528,-0.71151 -1.13058,0.115783 -2.05414,-0.01671 -2.05414,-0.294628 0,-0.277658 0.8674,-0.415912 1.92702,-0.30741 1.0596,0.108502 1.9265,0.0051 1.9265,-0.229679 0,-0.234735 -0.8127,-0.432123 -1.8061,-0.438854 -1.1539,-0.0079 -0.94387,-0.187462 0.58188,-0.497202 1.31354,-0.266632 2.61386,-0.888444 2.88975,-1.382085 l 0.50178,-0.897688 2.88974,0.882341 c 1.58942,0.485392 2.12185,0.763338 1.18339,0.617386 -2.81897,-0.438383 -3.55865,0.407923 -0.96221,1.10076 1.87911,0.501445 2.00802,0.711535 0.58136,0.946818 -1.42385,0.234814 -1.44184,0.366728 -0.0801,0.591301 1.34362,0.221588 1.2955,0.366467 -0.20671,0.62045 -1.54208,0.260739 -1.43927,0.332943 0.48266,0.337605 3.94484,0.0095 4.531463,0.753123 0.90072,1.141694 -2.24114,0.23984 -2.56108,0.365706 -0.96997,0.382074 1.3057,0.01349 2.761142,0.293922 3.234431,0.623042 0.537946,0.374087 0.269399,0.500293 -0.717269,0.337579 -0.868042,-0.143149 -0.461032,0.195136 0.904856,0.751423 1.365951,0.556258 2.984246,1.011244 3.596161,1.011244 0.611913,0 2.208721,0.446658 3.548621,0.992311 2.380015,0.969289 2.367447,0.982226 -0.556038,0.564718 -1.645861,-0.235049 -2.992583,-0.623487 -2.992583,-0.863433 0,-0.239946 -0.453988,-0.315292 -1.008724,-0.167271 -0.554738,0.148048 -1.816324,-0.126939 -2.803445,-0.610732 l -1.79472,-0.879279 0.1695,0.963686 c 0.0931,0.530149 0.866493,1.209157 1.719271,1.508945 1.317448,0.463157 1.035701,0.472245 -1.874821,0.05832 -2.22549,-0.316524 -3.07531,-0.336009 -2.42621,-0.05576 0.54951,0.237248 4.204151,0.864664 8.121469,1.394367 3.917323,0.529704 7.122562,1.052729 7.122562,1.162646 0,0.109942 -1.381379,0.0027 -3.069579,-0.238349 -3.609377,-0.515456 -9.934792,-0.754434 -9.934792,-0.375449 0,0.145088 3.191325,0.64876 7.092071,1.119171 3.90075,0.470437 7.492035,1.133051 7.980392,1.472647 0.716296,0.498093 0.489609,0.529205 -1.172538,0.161116 -1.897497,-0.420207 -8.083402,-1.021695 -14.267345,-1.387218 -2.41582,-0.142784 -2.41582,-0.106406 0,0.780047 1.393882,0.511501 3.001815,0.935558 3.572908,0.94221 0.571079,0.0067 0.708525,0.241412 0.305406,0.521742 -0.423193,0.294288 0.896016,0.707895 3.121773,0.978508 4.879586,0.593265 3.729744,0.977749 -1.375108,0.459857 -4.166904,-0.422747 -5.345669,0.09821 -1.516187,0.670078 1.263275,0.188641 2.239034,0.501105 2.167827,0.69412 -0.07124,0.192988 0.466262,0.350385 1.194758,0.350385 0.728474,0 1.866257,0.155224 2.528527,0.344755 0.701715,0.200793 -0.828603,0.24115 -3.667993,0.09666 -3.819339,-0.194351 -4.54629,-0.142915 -3.363618,0.237353 2.096251,0.67398 14.144296,1.573738 17.726567,1.323761 2.358051,-0.164547 2.628087,-0.100881 1.334286,0.315109 -1.759654,0.565766 -9.733227,0.660282 -10.961606,0.129925 -1.061013,-0.458103 -6.365502,-0.409129 -6.365502,0.05882 0,0.212055 1.137783,0.38857 2.528528,0.391818 1.390743,0.0031 3.503766,0.190396 4.695836,0.416356 1.652076,0.313171 1.136856,0.355257 -2.167308,0.176987 l -4.334621,-0.233765 3.612184,0.798458 c 1.986777,0.439167 5.114562,0.963659 6.95048,1.165735 1.835927,0.202076 2.916507,0.549476 2.401403,0.771875 -0.604441,0.260976 -2.749246,0.118952 -6.048727,-0.400512 -2.81173,-0.442677 -5.448652,-0.71528 -5.859589,-0.605626 -0.410938,0.109654 0.321479,0.309242 1.62729,0.442965 1.305812,0.133696 2.374014,0.492226 2.374014,0.796938 0,0.313721 1.09706,0.504562 2.529046,0.440399 1.390743,-0.06231 2.372037,0.09878 2.181262,0.357535 -0.42251,0.573099 4.901967,1.392927 6.902937,1.062917 0.791244,-0.130476 1.021254,-0.4173 0.511598,-0.637342 -0.637347,-0.275171 -1.220232,-0.273311 -1.867588,0.0062 -0.602244,0.260006 -1.708216,0.276951 -3.070614,0.04706 -1.773274,-0.299265 -1.692177,-0.360312 0.484728,-0.365236 1.437648,-0.0031 2.216684,-0.177563 1.731158,-0.387207 -0.48899,-0.211112 0.03425,-0.286956 1.173056,-0.170335 2.745047,0.281089 4.109974,-0.774494 2.480469,-1.918153 -0.721685,-0.506499 -1.053245,-0.990267 -0.736907,-1.074674 0.316339,-0.08441 0.94447,-1.350841 1.39578,-2.814322 0.451295,-1.463507 1.126477,-2.742223 1.500167,-2.841951 0.727522,-0.194141 1.1968,1.600607 0.728123,2.784151 -0.156057,0.394096 0.121308,1.146722 0.615981,1.672629 0.736338,0.782874 1.278242,0.872415 2.991033,0.49309 2.206048,-0.48856 1.440428,-1.317894 -0.865579,-0.937601 -0.739794,0.122016 -1.345139,0.0379 -1.345139,-0.186703 0,-0.224572 0.899469,-0.408159 1.998845,-0.408159 1.099375,0 2.325843,-0.333965 2.72593,-0.742203 0.552643,-0.563933 0.159118,-0.685791 -1.637625,-0.506395 -2.002184,0.199903 -2.078236,0.141998 -0.49816,-0.376994 1.522494,-0.500058 1.523071,-0.643365 0.0041,-0.778501 -1.204929,-0.107193 -0.716211,-0.329697 1.384411,-0.629668 1.785498,-0.255057 3.246832,-0.641191 3.246832,-0.858327 0,-0.217108 -0.8127,-0.264615 -1.806091,-0.105358 -1.052661,0.168763 -0.90197,-0.01352 0.361217,-0.436837 1.464725,-0.490891 1.5505,-0.627416 0.264583,-0.420966 -1.342586,0.215537 -1.767946,0.09572 -1.444874,-0.407661 0.251823,-0.392393 1.016538,-0.822186 1.699123,-0.954991 0.682572,-0.132832 1.584216,-1.054771 2.004012,-2.0486 0.749673,-1.774767 2.719091,-1.959269 3.64422,-0.341692 0.258458,0.451922 1.414852,1.13203 2.569872,1.511512 1.15503,0.379482 1.381426,0.575011 0.503327,0.434794 -1.032285,-0.164887 -1.542915,0.149305 -1.444874,0.888994 0.08337,0.629196 0.639551,1.144784 1.235583,1.145255 0.596035,2.88e-4 1.083657,0.184634 1.083657,0.409206 0,0.2246 -0.812705,0.287376 -1.806091,0.139641 -0.993394,-0.147707 -0.350419,0.138751 1.428853,0.636844 2.699663,0.755717 3.536397,0.81899 5.057056,0.382102 1.46958,-0.422223 1.461534,-0.469102 -0.04186,-0.241963 -1.368621,0.206816 -1.65436,0.04277 -1.07487,-0.617882 1.422765,-1.622083 1.999898,-2.804632 2.108917,-4.320727 0.09349,-1.300321 0.395391,-1.429828 2.336289,-1.00001 1.403358,0.310788 1.721425,0.628804 0.85938,0.858823 -0.862044,0.230047 -0.589774,0.863198 0.735357,1.709477 1.157433,0.739191 1.420995,1.231392 0.585494,1.09361 -0.835473,-0.137807 -1.519288,-0.07702 -1.519288,0.135032 0,0.212054 0.519663,0.471275 1.154451,0.575954 0.634786,0.104705 1.069282,0.964209 0.965316,1.910478 -0.226375,2.060438 3.143092,3.55786 6.549988,2.910489 1.761731,-0.334752 1.641814,-0.365995 -0.641305,-0.166224 -2.616898,0.228947 -2.648484,0.198567 -0.464052,-0.445531 1.289555,-0.380242 2.444953,-0.864663 2.567799,-1.076718 0.122822,-0.21208 0.598752,-0.472506 1.057302,-0.57852 0.458533,-0.106041 0.365998,0.02391 -0.205674,0.288998 -1.340866,0.621733 -0.812792,0.608035 4.688604,-0.124294 4.62379,-0.615526 6.297525,-1.08976 2.458765,-0.696686 -4.594431,0.470463 -5.429861,-0.338601 -1.309481,-1.26803 l 4.129979,-0.931447 -6.326745,0.820456 c -5.861273,0.760195 -6.498503,0.774023 -8.669237,0.188223 -2.161096,-0.583182 -2.157619,-0.613667 0.04547,-0.391818 2.420199,0.243718 13.274198,-1.017347 14.937589,-1.735534 1.241366,-0.535963 -1.188096,-0.494662 -3.248896,0.05523 -1.266944,0.338077 -2.182278,0.333363 -3.772897,-0.01891 -1.635676,-0.362249 -2.337668,-0.36238 -3.174484,-9.94e-4 -0.656704,0.283524 -0.464627,0.363218 0.494027,0.205114 0.862595,-0.14226 1.918256,-0.107795 2.345595,0.07671 0.427352,0.184529 -0.937797,0.544186 -3.033408,0.79898 -3.225374,0.392158 -3.553156,0.380347 -2.134754,-0.07568 0.921549,-0.296306 1.35876,-0.623017 0.971518,-0.726359 -0.789596,-0.210693 2.852161,-1.238934 7.229015,-2.040927 4.432339,-0.812155 1.604386,-1.113776 -3.836974,-0.409207 -4.096782,0.530489 -4.404061,0.53502 -2.025201,0.02865 1.542635,-0.328361 3.254807,-0.596931 3.804936,-0.596931 0.550127,0 1.369013,-0.390377 1.819529,-0.867518 0.7409,-0.784683 0.639562,-0.803853 -1.058333,-0.19896 -1.032449,0.367802 -2.297557,0.556494 -2.811198,0.41942 -0.513657,-0.137048 0.823307,-0.871813 2.970877,-1.632742 2.14757,-0.760902 2.762572,-1.138053 1.366842,-0.838343 -2.321755,0.498538 -2.475285,0.453048 -1.805574,-0.532479 0.402616,-0.592454 1.987547,-1.34906 3.522265,-1.681323 2.208546,-0.47819 2.49133,-0.779078 1.35599,-1.443997 -1.08517,-0.635534 -0.81139,-1.093662 1.123963,-1.881853 2.375146,-0.967274 2.667926,-0.991577 4.086571,-0.337082 0.840418,0.387732 1.554584,0.791674 1.5875,0.897715 0.03295,0.106014 0.556197,0.401141 1.16272,0.655752 0.606525,0.254612 0.8069,0.898265 0.44545,1.430168 -0.414997,0.610681 0.460996,1.346074 2.376601,1.995908 l 3.033405,1.029158 -3.05046,-0.435815 c -2.699507,-0.385505 -3.025563,-0.335667 -2.835487,0.432751 0.118198,0.477561 1.215795,1.098219 2.43913,1.37902 1.867874,0.428745 1.876912,0.463393 0.05684,0.215355 -1.926569,-0.262574 -1.926569,-0.216271 0,0.420442 2.039879,0.674189 1.91245,0.701164 -2.167311,0.456792 l -4.335134,-0.259352 5.780008,1.384154 5.779492,1.384128 0.866613,-1.670586 c 0.875425,-1.687215 1.167374,-1.580782 2.184879,0.796441 0.308377,0.720439 1.3732327,1.577797 2.3667828,1.905345 1.4853735,0.489739 1.4449266,0.537509 -0.2273776,0.268545 -1.6197818,-0.260504 -1.8127902,-0.138437 -0.94878,0.60052 0.5966698,0.510297 1.1910087,1.2751 1.3208503,1.699236 0.1298998,0.424108 0.7576158,0.988119 1.3952643,1.253181 0.658151,0.273599 0.5178848,0.481855 -0.3250459,0.481855 -1.7529307,0 -0.3051255,1.224111 1.9311487,1.632742 1.0998227,0.20095 1.0956264,0.284808 -0.01447,0.288998 -2.5331499,0.0095 -1.3142357,1.72904 1.3224007,1.86546 1.3252026,0.06857 2.4096715,-0.06139 2.4096715,-0.288999 0,-0.22761 0.68852519,-0.413815 1.5301383,-0.413815 0.8416158,0 1.1283315,0.173634 0.63717223,0.385688 -1.23795895,0.534497 -0.0273712,0.485129 6.18773627,-0.251155 4.1561964,-0.492357 4.7648154,-0.674949 2.6897568,-0.807152 -1.4751553,-0.09399 -3.3935485,0.01868 -4.2627894,0.250631 -3.1520712,0.841094 -4.3114568,0.398024 -1.2407503,-0.474182 1.7352301,-0.492856 2.6610574,-1.040787 2.0577545,-1.217878 -0.6033002,-0.177118 0.07483,-0.210038 1.5068868,-0.07265 1.4567905,0.139772 2.238817,0.09258 1.7756028,-0.107402 -0.4553558,-0.196603 0.3236966,-0.536355 1.7311582,-0.755009 1.407467,-0.218629 1.872525,-0.402738 1.033531,-0.409208 -2.7350215,-0.021 -11.0551644,1.825442 -9.0351077,2.005127 1.2490397,0.111095 0.8196183,0.319142 -1.2758923,0.618406 -2.38942293,0.341246 -3.4115057,0.342529 -4.1930266,0.0052 -0.6411278,-0.27682 -0.4003569,-0.341533 0.6345872,-0.170858 0.97248133,0.160383 1.66811588,0.03787 1.66811588,-0.293084 0,-0.31228 2.72882512,-1.103012 6.06422872,-1.75756 3.3354036,-0.654521 5.4104648,-1.190274 4.6110898,-1.190274 -0.799381,0 -2.7155037,0.2549 -4.2581382,0.566237 C 5.0945895,52.49464 3.1820674,52.749723 2.387357,52.750037 1.5926439,52.750325 2.0940373,52.571741 3.5014989,52.353113 4.9090452,52.134459 5.6167976,51.763698 5.0745315,51.529566 4.5322759,51.295435 5.9818724,50.693423 8.2955213,50.19148 10.900961,49.626212 11.449212,49.381761 9.7362622,49.549529 7.8148078,49.737699 7.2895755,49.682885 8.015436,49.369478 c 0.5746353,-0.24809 1.8926334,-0.451161 2.928504,-0.451161 1.866791,0 2.024959,-1.488256 0.240294,-2.258822 -0.477274,-0.206057 -0.196834,-0.463104 0.622702,-0.571345 0.819539,-0.10824 0.660816,-0.144434 -0.352433,-0.08082 -1.013259,0.06362 -1.7021568,0.293163 -1.5306565,0.509983 0.1747365,0.22088 -1.0307055,0.30047 -2.7419511,0.181073 -2.9260112,-0.204197 -2.9426403,-0.235232 -0.396875,-0.731989 1.4614604,-0.285148 3.113307,-0.518154 3.6710936,-0.518154 0.5578,0 1.376074,-0.251784 1.817989,-0.559062 0.561737,-0.390639 0.06485,-0.497046 -1.65159,-0.353974 -1.9963604,0.166407 -1.9314317,0.09077 0.349332,-0.405121 1.542632,-0.335406 2.114714,-0.609712 1.271249,-0.609712 -0.843486,0 -1.455171,-0.563985 -1.359617,-1.253207 0.112993,-0.815219 -0.457412,-1.219214 -1.632458,-1.156516 -2.7149081,0.144904 -2.1845296,-0.269069 1.444874,-1.127369 2.864112,-0.677306 2.916843,-0.740239 0.442349,-0.527346 -2.7389802,0.235624 -2.7425944,0.222346 -0.137459,-0.545784 1.469376,-0.433248 1.940943,-0.78772 1.048001,-0.78772 -0.920626,0 -1.223931,-0.278129 -0.700736,-0.64195 0.688962,-0.47908 0.402873,-0.559848 -1.129128,-0.319194 -1.1284475,0.177275 -0.7512311,-0.07265 0.83819,-0.555474 1.589421,-0.482851 2.74602,-0.944542 2.569861,-1.026095 -0.176133,-0.08156 0.237834,-0.540598 0.920379,-1.019939 1.144164,-0.803618 1.310852,-0.766507 2.133706,0.477744 0.490855,0.742203 1.090983,2.186775 1.333765,3.2097 0.242781,1.022951 1.28852,1.999574 2.323888,2.170329 1.530059,0.252333 1.513549,0.346064 -0.08734,0.499743 -1.643909,0.157816 -1.653355,0.331319 -0.05683,1.050659 1.052063,0.474025 1.214597,0.746865 0.36121,0.606123 -3.48324,-0.574434 -1.233382,0.563671 2.987939,1.511513 l 4.539271,1.018918 -4.178062,-0.245 c -2.300367,-0.134901 -3.497633,-0.100698 -2.663904,0.07568 0.832829,0.176202 1.615625,0.747231 1.739424,1.269052 0.123825,0.521847 1.718072,1.261273 3.542929,1.64348 2.874751,0.602116 2.931716,0.659052 0.427884,0.425077 -2.505868,-0.234184 -2.640382,-0.188038 -1.01338,0.346275 1.446239,0.474967 1.47783,0.681862 0.13798,0.902821 -1.205627,0.198828 -1.363477,0.120863 -0.515197,-0.254717 1.037458,-0.459359 0.855927,-0.462319 -1.195281,-0.01844 -2.146671,0.464545 -2.181067,0.613666 -0.309034,1.326852 1.159854,0.44189 3.911309,1.018682 6.114362,1.281858 3.924142,0.468761 3.888158,0.475832 -1.774057,0.343734 l -5.780008,-0.135032 5.780008,0.682858 c 5.249941,0.620108 5.862716,0.625791 6.685888,0.06445 0.91022,-0.620685 2.021946,0.957243 3.330046,4.725297 0.77552,2.233995 1.746991,2.611748 3.504168,1.3637 0.78195,-0.555395 0.770176,-0.97678 -0.02945,-1.057286 -0.732684,-0.07381 -0.581634,-0.374243 0.33692,-0.66958 0.916755,-0.294759 1.811417,-2.0563 1.988,-3.914557 0.449818,-4.733705 0.637408,-5.186596 2.051024,-4.953459 0.687546,0.1134 1.053676,0.683173 0.813911,1.265988 -0.239766,0.582815 0.09189,1.237651 0.736917,1.455232 0.644975,0.217579 1.019043,0.829438 0.83148,1.359588 -0.18759,0.530174 0.560943,1.440879 1.662933,2.024034 1.101989,0.583182 1.36988,1.060376 0.595312,1.060376 -0.780203,0 -0.466302,0.601724 0.704347,1.349348 1.162183,0.742229 1.700081,1.349872 1.194753,1.349872 -0.505328,0 -0.102976,0.262416 0.89453,0.583129 1.481402,0.476305 2.241761,0.49372 4.150651,0.09617 2.054727,-0.427957 2.107168,-0.408473 0.437171,0.161117 -1.084607,0.369949 -3.253714,0.583025 -5.057034,0.496679 -2.879487,-0.13786 -2.938119,-0.107088 -0.667677,0.350883 1.462723,0.295048 2.241736,0.845964 1.888782,1.335049 -0.330465,0.457892 0.01164,0.832739 0.761179,0.832739 0.749089,0 1.362208,-0.308483 1.362208,-0.685425 0,-0.376941 0.879395,-1.027744 1.954397,-1.446038 2.210303,-0.860029 2.605961,-2.192721 0.55036,-1.853701 -0.741548,0.122278 -0.610526,-0.145691 0.291439,-0.595412 0.901964,-0.449722 1.212506,-0.817392 0.689901,-0.817392 -0.522632,0 -0.05765,-0.29387 1.033012,-0.652688 1.238462,-0.4074 1.323764,-0.546884 0.227886,-0.371338 -1.229678,0.19697 -1.121595,-0.123089 0.361209,-1.070092 1.163823,-0.74325 2.172388,-2.007667 2.240703,-2.809713 l 0.124011,-1.458294 1.45161,1.157014 c 0.79838,0.636189 1.434226,1.456593 1.412822,1.823531 -0.02138,0.366937 0.580284,0.769255 1.337389,0.894126 0.757105,0.124844 0.940303,0.415335 0.40722,0.645513 -0.578538,0.249792 -0.296492,0.307932 0.699162,0.143752 0.917522,-0.151322 1.668118,-0.483558 1.668118,-0.738117 0,-0.25456 1.211607,-0.664736 2.692347,-0.911516 1.480741,-0.246756 3.044931,-0.808934 3.476281,-1.249097 l 0.784437,-0.800002 -3.671597,0.77033 c -4.686696,0.983746 -6.703245,0.985213 -4.734083,0.0036 0.846402,-0.422013 2.30243,-0.725573 3.23596,-0.674687 0.933556,0.05092 1.727094,-0.110125 1.76321,-0.357535 0.03611,-0.24741 0.553243,-0.579568 1.149297,-0.738616 0.596026,-0.159047 1.083654,-0.464072 1.083654,-0.677751 0,-0.213678 -1.730323,0.03218 -3.845243,0.546282 -4.214521,1.024496 -3.475567,0.487067 2.088753,-1.518662 l 3.597196,-1.296681 -4.171315,0.703338 c -4.167981,0.7025 -4.169437,0.702238 -1.639702,-0.08441 1.392475,-0.433013 2.042636,-0.93108 1.444863,-1.106915 -0.597747,-0.175834 -0.274029,-0.194978 0.719349,-0.04245 0.993378,0.152552 1.806099,0.09365 1.806099,-0.130947 2.88e-4,-0.224762 -0.750335,-0.408715 -1.668227,-0.408715 -0.922417,0 -0.446643,-0.360207 1.064022,-0.805633 1.50323,-0.443227 2.805562,-1.007239 2.89388,-1.253181 0.08829,-0.24597 0.274188,-0.794293 0.412909,-1.218429 0.234764,-0.717846 0.442515,-0.704805 3.008074,0.186205 1.804749,0.626761 2.286,1.108304 1.394751,1.394866 -1.925373,0.619061 2.167652,1.434148 5.699389,1.135041 1.555777,-0.131757 3.700463,-0.525591 4.765596,-0.875192 1.679575,-0.551231 1.600729,-0.601907 -0.592217,-0.382598 -4.425976,0.442624 -2.714757,-0.380268 1.837108,-0.883389 6.124548,-0.67694 6.623288,-1.114615 1.060926,-0.931447 -4.056882,0.133592 -4.256881,0.104024 -1.453144,-0.213809 3.617912,-0.410149 4.550939,-0.994431 1.008724,-0.63171 -1.465104,0.150012 -1.883622,0.07443 -1.207691,-0.217397 0.690907,-0.298296 0.23585,-0.364947 -1.369933,-0.200505 -4.082177,0.41798 -2.655676,-0.05913 2.291847,-0.766769 l 4.695829,-0.671596 -5.057567,-0.251678 -5.057061,-0.251129 5.780008,-0.07776 c 4.63571,-0.06247 5.20764,-0.143936 2.889753,-0.409731 -1.589431,-0.18225 -2.038694,-0.343157 -0.998379,-0.358058 1.040289,-0.01493 1.517095,-0.188773 1.059868,-0.386188 -0.457226,-0.197413 -0.138747,-0.473213 0.70747,-0.612775 1.052508,-0.173583 0.946018,-0.448832 -0.33745,-0.871604 -1.2006,-0.395457 -1.261824,-0.51949 -0.170021,-0.344755 3.239659,0.518468 3.389919,-0.459857 0.163301,-1.062917 l -3.235458,-0.604604 4.295326,-0.0271 c 3.70589,-0.02339 3.89853,-0.07267 1.4051,-0.358583 -2.579586,-0.295781 -2.609193,-0.334384 -0.27596,-0.358557 1.43764,-0.01493 2.32653,-0.157083 1.97559,-0.31613 -1.09387,-0.49571 1.8094,-2.087073 3.34552,-1.833744 0.80145,0.132177 1.45677,0.66395 1.45677,1.181579 0,0.517657 0.68905,0.941189 1.53067,0.941189 0.84158,0 1.15588,0.161666 0.69866,0.359054 -1.36166,0.587923 2.06049,0.901932 4.33617,0.397972 1.68886,-0.374008 2.10426,-0.347531 2.10426,0.134011 0,0.367068 -1.53548,0.647607 -3.95531,0.722246 l -3.95481,0.121754 3.45096,0.854214 c 2.68897,0.665468 3.08671,0.971568 1.80039,1.38515 -0.90805,0.291957 -1.22309,0.644621 -0.70019,0.784157 0.52292,0.139537 -0.1328,0.253695 -1.45728,0.253695 -1.32453,0 -2.40813,0.173609 -2.40813,0.385689 0,0.212054 2.76318,0.408396 6.14072,0.436312 l 6.14121,0.05114 -5.05756,0.283892 c -2.78151,0.156219 -4.22381,0.306597 -3.20551,0.334515 3.06602,0.08407 3.6502,1.144182 1.01804,1.846551 -2.20088,0.587293 -2.22792,0.705459 -0.25167,1.091043 1.98578,0.38747 1.97874,0.472245 -0.0687,0.816895 -1.93546,0.325768 -1.53146,0.516897 2.64014,1.248075 l 4.92527,0.862909 -4.69635,-0.174421 c -2.58281,-0.09609 -4.69583,-0.02221 -4.69583,0.164704 0,0.186912 -1.13778,0.235337 -2.52854,0.107428 -2.05369,-0.188876 -1.98586,-0.116227 0.36124,0.385663 1.5894,0.339884 2.32714,0.623435 1.63967,0.630191 -0.68744,0.0068 -0.17235,0.450534 1.14411,0.986706 1.31652,0.536146 1.99324,1.147744 1.50379,1.359065 -0.48945,0.211321 -0.35433,0.343393 0.30078,0.29311 0.65508,-0.05031 2.58604,0.115101 4.29067,0.367748 2.53738,0.376105 3.45101,0.346563 5.03949,-0.164179 1.06717,-0.343132 1.7345,-1.043092 1.48312,-1.554987 -0.25138,-0.511894 0.32406,-1.181632 1.27847,-1.488491 1.36551,-0.439036 1.32794,-0.558067 -0.17569,-0.558067 -1.47124,0 -1.51751,-0.104966 -0.20103,-0.456242 2.44295,-0.651903 3.49674,-0.197964 3.46181,1.491032 -0.0168,0.809378 0.9607,1.883451 2.17247,2.386704 1.21179,0.503252 1.49307,0.79741 0.62476,0.654206 -1.10628,-0.182434 -1.31133,0.351617 -0.68469,1.784142 0.49181,1.124382 0.99272,2.986202 1.1131,4.137088 0.12674,1.21154 0.93324,2.156107 1.91564,2.243475 1.04166,0.09266 1.47476,-0.156874 1.12138,-0.646534 -0.3166,-0.43867 -0.0847,-0.79796 0.51573,-0.79796 0.60042,0 0.86654,-0.799479 0.59118,-1.776468 -0.27535,-0.97699 0.22405,-2.008898 1.10951,-2.293602 0.88543,-0.284703 1.48828,-1.003597 1.33995,-1.597438 -0.1483,-0.593867 -0.1905,-1.860562 -0.0941,-2.814845 0.27734,-2.745758 2.66732,-1.083868 2.98588,2.07623 0.37214,3.691478 0.37835,3.707401 1.48828,3.707401 0.53451,0 0.85548,0.520327 0.71366,1.156517 -0.14192,0.636189 0.28803,1.156516 0.95496,1.156516 0.66696,0 1.21285,0.260426 1.21285,0.57852 0,0.318095 -0.68903,0.578521 -1.53064,0.578521 -0.86204,0 -1.03756,0.210325 -0.40256,0.481855 1.93273,0.826401 1.99702,1.831152 0.11782,1.837333 -1.29035,0.0043 -1.33493,0.08561 -0.15815,0.288998 0.90149,0.155799 1.96398,0.63061 2.36112,1.054719 0.76539,0.817497 1.59253,-1.6241 1.09244,-3.22455 -0.15656,-0.500948 0.25945,-0.820666 0.92448,-0.710986 0.66506,0.109681 1.41708,1.210781 1.67121,2.447568 0.46107,2.243763 1.52091,3.076973 2.74765,2.160088 0.35644,-0.266397 1.10778,-0.408237 1.66965,-0.31558 0.56187,0.09266 1.11718,-0.170649 1.23404,-0.584675 0.12208,-0.432384 -0.4268,-0.647109 -1.28934,-0.50485 -0.93379,0.153993 -0.88127,-0.06136 0.13851,-0.569826 1.27498,-0.63569 1.22669,-0.820534 -0.21704,-0.829648 -1.02629,-0.0066 -0.64838,-0.199196 0.8449,-0.430708 1.76435,-0.27352 2.14691,-0.510586 1.10225,-0.682858 -1.08024,-0.178139 -1.17943,-0.65481 -0.30541,-1.468038 0.71194,-0.662378 0.93599,-1.300033 0.49819,-1.416864 -0.80865,-0.2158 -0.98809,-5.468758 -0.33073,-9.677237 l 0.36121,-2.313557 1.16271,3.084411 c 0.63952,1.696486 1.86693,4.125564 2.72748,5.397942 0.86056,1.272379 1.58467,2.617117 1.60923,2.988244 0.0546,0.826087 2.13973,0.887187 3.27731,0.09614 0.45741,-0.318095 0.36436,-0.578075 -0.20672,-0.577996 -1.80155,2.88e-4 -0.69778,-3.075219 1.34411,-3.74527 1.72101,-0.564746 1.60999,-0.608822 -0.93742,-0.374428 -2.70917,0.249295 -2.72918,0.232325 -0.31882,-0.268021 2.46483,-0.511632 2.46483,-0.544552 0,-0.799479 -2.32323,-0.240285 -2.34934,-0.309609 -0.27443,-0.720204 3.0403,-0.601645 4.65275,-2.703462 1.85418,-2.416874 -2.53728,0.259798 -2.57427,-0.318513 -0.0558,-0.876239 2.94362,-0.651876 1.95424,-2.187954 -1.35649,-2.105877 -2.63139,0.06524 -2.63586,0.04743 -0.10904,-0.448071 2.54262,-0.498616 2.54262,-0.528682 0,-0.923275 -2.52915,-0.392499 -2.52709,-0.408657 0.0537,-0.419944 1.78319,-0.0079 2.40429,-0.205927 1.85155,-0.59028 -0.45741,-0.318094 -0.16346,-0.577996 0.65321,-0.577996 0.81666,0 1.11913,-0.157974 0.6723,-0.350909 -1.0972,-0.473738 0.64934,-1.621271 2.10273,-1.381588 0.63685,0.105019 0.81798,0.537718 0.40253,0.961643 -0.41542,0.423925 -0.13795,0.770854 0.61704,0.770854 1.91905,0 1.72873,1.15374 -0.19275,1.168773 -0.86093,0.0068 -0.30292,0.267182 1.2397,0.57852 2.09447,0.422721 2.26037,0.56574 0.65527,0.56574 -1.44026,0 -2.0696,0.349888 -1.90738,1.06035 0.37055,1.623262 0.39926,1.635675 3.86591,1.683365 2.44652,0.03368 2.6253,0.08829 0.72244,0.220986 -3.23368,0.225489 -3.23368,1.187105 0,2.203587 2.44459,0.768419 2.43663,0.775726 -0.2367,0.223002 -2.62225,-0.54217 -2.67075,-0.524099 -0.93945,0.342713 1.19949,0.600571 1.26836,0.822158 0.2005,0.646036 -1.16962,-0.192884 -1.39496,0.415518 -0.80253,2.170328 0.45278,1.341203 0.91228,2.9592 1.0206,3.595389 0.10837,0.636189 0.89194,1.286494 1.74149,1.445541 1.06386,0.199169 0.97763,0.386972 -0.27697,0.603583 -1.36017,0.234813 -0.9139,0.542065 1.76165,1.212771 1.97078,0.49406 3.19984,1.064095 2.73108,1.266512 -0.46876,0.20239 0.54449,0.168161 2.25206,-0.07571 1.70759,-0.243848 2.71676,-0.610968 2.24226,-0.815847 -0.47453,-0.204878 -1.3058,-0.310133 -1.84692,-0.234289 -0.5411,0.07587 -2.06135,-0.165674 -3.3786,-0.536565 -2.23883,-0.630349 -2.19578,-0.688227 0.65937,-0.887475 1.67994,-0.117223 2.60083,-0.333886 2.04639,-0.481829 -0.55443,-0.147943 -0.28411,-0.502127 0.601,-0.786699 1.21277,-0.389957 1.12088,-0.520066 -0.37362,-0.528917 -1.37467,-0.0081 -1.22605,-0.129664 0.48525,-0.395904 1.35771,-0.211215 2.10569,-0.63666 1.6619,-0.945247 -0.64124,-0.445925 -1.4446,-0.471747 -3.91345,-0.126363 -3.03673,0.424842 -3.04795,0.417115 -0.4899,-0.352429 2.00392,-0.602824 2.17315,-0.831377 0.72244,-0.974423 -1.11638,-0.110073 -0.11427,-0.37524 2.44017,-0.645512 3.90811,-0.413502 4.07554,-0.497019 1.70067,-0.851674 -2.49928,-0.373223 -2.50601,-0.431389 -0.13695,-1.129909 2.37172,-0.69933 2.36328,-0.736074 -0.17053,-0.736074 -2.53526,0 -2.52878,-0.03027 0.13695,-0.607146 1.54263,-0.333834 1.82975,-0.473972 0.63767,-0.31152 -1.86592,0.254297 -1.89169,0.20459 -0.18446,-0.357038 1.68082,-0.552933 1.68082,-0.65329 0,-0.658293 -1.60012,-0.0048 -1.61978,-0.06723 -0.10078,-0.324301 1.03534,-0.175232 1.77109,-0.475911 1.63504,-0.668559 -0.56205,-0.795681 0.21537,-0.996474 2.17662,-0.562126 1.14483,0.253512 1.75046,0.690716 1.34615,0.971856 -0.40431,0.281142 -0.069,0.621235 0.7452,0.755508 0.81418,0.134272 1.14623,0.476146 0.73792,0.76009 -0.4083,0.283944 0.30435,0.623514 1.58338,0.754485 1.28362,0.131418 1.94979,0.07592 1.48724,-0.123796 -0.4609,-0.198986 0.5229,-0.555867 2.18591,-0.793351 2.41986,-0.345566 2.6811,-0.542273 1.30845,-0.983614 -1.33136,-0.428038 -1.31295,-0.551415 0.0832,-0.551415 1.38959,0 1.41203,-0.124556 0.0971,-0.547329 -1.34321,-0.43186 -1.15191,-0.641008 0.90692,-0.992834 2.36307,-0.403811 2.3705,-0.425837 0.0801,-0.235808 -3.05961,0.253853 -3.31819,-0.268099 -0.44751,-0.903817 2.38403,-0.527975 1.35803,-1.688838 -1.14877,-1.299745 -0.91019,0.141264 -0.35433,-0.150038 1.23508,-0.647058 1.71973,-0.537795 2.01223,-0.769047 0.72244,-0.570847 -1.88574,0.289785 -1.90341,0.246231 -0.13385,-0.335562 1.49122,-0.490262 1.6057,-0.782639 0.42891,-1.096675 -1.1132,-0.297037 -1.15588,-0.652531 -0.13901,-1.15958 1.44608,-0.721016 1.82057,-1.374019 3.36053,-5.861387 0.78203,-2.278726 2.10227,-3.321947 2.44533,-1.932477 0.63124,2.55675 1.00613,4.578847 1.35184,7.293597 0.26495,2.080473 1.11106,3.309665 2.59934,3.775964 2.02271,0.633727 1.97226,0.669004 -0.60256,0.425078 -2.22538,-0.210849 -2.45531,-0.164181 -1.10794,0.225043 1.17763,0.340199 1.27703,0.788716 0.32297,1.458323 -1.0161,0.713158 -0.79777,1.203578 0.83251,1.867527 2.04026,0.83088 2.01526,0.880378 -0.32297,0.646534 -2.23126,-0.223132 -2.29317,-0.174577 -0.52245,0.406142 1.78361,0.584937 1.70156,0.631004 -0.72295,0.406144 -2.52761,-0.234447 -2.5156,-0.206791 0.15709,0.369294 2.21398,0.47722 2.45943,0.698938 1.04955,0.94784 -1.42005,0.250684 -1.20468,0.477981 0.94207,0.996397 1.53014,0.369529 2.60419,0.964156 2.38691,1.321246 -0.21725,0.35709 0.26363,0.870216 1.06868,1.140149 1.11863,0.375056 0.81944,0.426125 -1.26918,0.216873 -2.5011,-0.250552 -2.54934,-0.212316 -0.56584,0.449119 1.9929,0.664526 1.93474,0.701531 -0.72244,0.458312 -2.0066,-0.183692 -1.56504,0.02896 1.44486,0.69666 4.87159,1.080646 3.94269,1.293539 -1.4955,0.342712 -2.18729,-0.382416 -3.56156,-0.456348 -3.56156,-0.192334 0,0.236463 0.48763,0.436391 1.08366,0.445008 0.59605,0.0086 3.35923,0.548664 6.14071,1.199493 2.82691,0.661461 3.66541,0.994667 1.90119,0.755507 -3.81608,-0.517342 -8.16591,-0.564351 -7.03421,-0.07571 0.44923,0.193957 0.0983,0.417064 -0.77978,0.495159 -0.87802,0.0781 1.71693,0.555763 5.76657,1.06187 4.0496,0.506133 7.68799,0.833524 8.08579,0.72738 0.69094,-0.184373 1.72728,-3.396089 2.15699,-6.685431 0.34314,-2.62665 2.60152,-0.335354 3.41167,3.461378 0.70874,3.32145 1.42182,4.057787 3.4153,3.525831 0.56594,-0.151007 0.25043,-0.607172 -0.70125,-1.013812 -1.436,-0.613561 -1.3652,-0.70208 0.416,-0.519673 1.50985,0.154596 2.17895,-0.0497 2.25671,-0.689012 0.26832,-2.205737 2.08997,-3.179714 4.22402,-2.258298 0.70829,0.305785 1.48812,0.474287 1.73273,0.374401 0.24456,-0.09989 1.90532,-0.7383 3.69073,-1.418906 4.04172,-1.540765 4.07963,-1.800641 0.1819,-1.243989 -2.48568,0.354969 -2.83448,0.339281 -1.84693,-0.08286 0.66961,-0.286248 1.33578,-0.693832 1.48003,-0.905885 0.14417,-0.212055 0.71983,-0.689249 1.279,-1.06035 0.74755,-0.496155 0.30641,-0.677961 -1.66659,-0.68697 -2.52674,-0.01152 -2.51462,-0.04619 0.20672,-0.594888 3.19061,-0.643339 3.78714,-1.36171 1.49294,-1.796922 -0.96105,-0.182304 -0.84926,-0.285202 0.31313,-0.288999 0.99341,-0.0031 1.8061,-0.454226 1.8061,-1.002053 0,-1.668464 3.54132,-0.83706 4.37235,1.026592 0.41799,0.937339 1.1875,1.886254 1.7105,2.108443 0.52298,0.22219 0.40098,0.641715 -0.2713,0.931971 -0.67622,0.291957 -0.63569,0.939696 0.0909,1.449626 0.85677,0.601279 0.81266,0.838867 -0.12714,0.68388 -2.74214,-0.452236 -1.42491,0.525093 2.30013,1.706386 2.05743,0.652452 2.95325,1.186189 1.99057,1.186189 -1.28175,0 -1.2197,0.180549 0.23254,0.674686 1.79731,0.611519 1.74657,0.624876 -0.54517,0.145273 -1.39076,-0.291068 -2.52905,-0.355388 -2.52905,-0.143229 0,0.212159 1.46338,0.672408 3.25149,1.022506 l 3.25096,0.63632 -3.375,-0.428142 c -1.85615,-0.235363 -3.73708,-0.331006 -4.18009,-0.212788 -0.44305,0.118218 0.25884,0.32404 1.56011,0.457291 1.30122,0.133251 2.00652,0.397369 1.56681,0.587215 -0.43968,0.189845 -0.0828,0.345279 0.79375,0.345279 0.87646,0 1.40248,0.250735 1.16893,0.557018 -0.23349,0.306284 0.87606,0.834757 2.46549,1.174929 2.45846,0.526167 2.13498,0.52072 -2.1673,-0.03785 -4.08263,-0.53007 -4.71186,-0.545102 -3.2639,-0.07927 0.98647,0.317361 1.45512,0.66704 1.04129,0.77748 -0.92639,0.247201 7.22167,2.619945 8.99686,2.619945 0.70406,0 1.38253,-0.361804 1.50742,-0.804088 0.16864,-0.597482 -0.38172,-0.741732 -2.14046,-0.561628 -2.18522,0.223761 -2.18681,0.189269 -0.0217,-0.44912 1.76329,-0.519908 2.46057,-1.667442 2.80913,-4.624024 0.25495,-2.162785 0.91086,-3.810691 1.45778,-3.662407 0.54694,0.148283 1.38488,2.255024 1.86189,4.681849 0.47705,2.426826 1.48657,4.611742 2.2438,4.855224 0.75727,0.243481 0.89506,0.597952 0.30594,0.788243 -0.58915,0.190291 0.39161,0.01757 2.17969,-0.384144 3.22691,-0.724944 4.43825,-1.237756 1.95752,-0.828654 -0.71144,0.117329 -1.67926,-0.05471 -2.15077,-0.382598 -0.56354,-0.391843 -0.24403,-0.513649 0.93223,-0.354996 0.98428,0.132781 0.6518,-0.0074 -0.73898,-0.311494 -3.03887,-0.664682 -3.20392,-1.188206 -0.55912,-1.773928 1.08323,-0.239867 1.85828,-0.824961 1.72236,-1.300243 -0.13594,-0.475283 0.3582,-1.081223 1.09763,-1.346284 0.87751,-0.314611 0.76321,-0.481855 -0.32867,-0.481855 -1.25669,0 -1.26452,-0.203072 -0.0326,-0.817393 1.15261,-0.57467 1.16761,-0.740187 0.0506,-0.555997 -1.99141,0.328412 -2.02316,-0.0028 -0.093,-0.965231 1.08942,-0.543165 1.0287,-0.745765 -0.22376,-0.745765 -1.01264,0 -0.58832,-0.344257 1.03249,-0.837349 1.51392,-0.460589 2.0615,-0.730967 1.21697,-0.600518 -2.20159,0.340093 -1.43803,-2.657789 0.86559,-3.398447 1.27524,-0.410045 1.38422,-0.718134 0.35089,-0.993855 -1.6433,-0.438512 -0.80148,-4.951599 1.02163,-5.476719 0.98648,-0.284153 3.0421,2.565497 3.70573,5.137568 0.13679,0.530176 0.38238,1.051027 0.54621,1.157041 0.16385,0.10604 0.57779,1.027011 0.91985,2.046558 0.43026,1.282539 0.13308,1.772776 -0.9643,1.591807 -0.95766,-0.157947 -0.84543,0.100751 0.28268,0.652689 2.51277,1.229375 3.08491,3.129456 0.83717,2.780039 -0.93213,-0.144878 -0.45612,0.113322 1.0578,0.573911 1.97287,0.600206 2.19808,0.837349 0.79478,0.837349 -1.52278,0 -1.57287,0.102531 -0.22426,0.462397 0.95364,0.254481 1.73427,0.93844 1.73427,1.519683 0,0.58127 0.62179,1.159581 1.38181,1.284923 0.75999,0.125341 1.10302,0.438905 0.76274,0.697184 -0.90742,0.688776 3.13079,1.947928 5.16919,1.611764 1.25574,-0.207078 1.08492,-0.380766 -0.62632,-0.63632 -1.29408,-0.193251 -2.34273,-0.559271 -2.33058,-0.813805 0.017,-0.356854 0.27638,-0.356252 1.13326,0.0036 0.80896,0.339648 1.56215,0.273862 2.76934,-0.241962 1.36835,-0.584675 1.23341,-0.699907 -0.77205,-0.659314 -1.562,0.03161 -2.27844,-0.191941 -2.00557,-0.625583 0.23352,-0.371101 -0.32626,-0.674686 -1.24386,-0.674686 -0.91758,0 -0.26202,-0.303795 1.45677,-0.675185 1.71876,-0.37139 3.2848,-0.935375 3.48041,-1.253208 0.19558,-0.317805 1.24378,-1.011533 2.32905,-1.541681 1.73799,-0.849003 1.71489,-0.907379 -0.19172,-0.487985 -1.84735,0.406379 -2.1468,0.293634 -2.04277,-0.770828 0.067,-0.686026 0.73454,-1.507478 1.48312,-1.825572 1.20489,-0.512 1.05884,-0.512968 -1.27177,-0.0077 -2.4833,0.538398 -2.56424,0.494427 -1.42677,-0.771351 0.66318,-0.738065 1.15856,-1.901732 1.1007,-2.586187 -0.0578,-0.684482 0.2972,-1.178228 0.78859,-1.097199 0.49138,0.08103 0.93358,-0.573701 0.98287,-1.454733 0.43381,-7.751359 2.60832,-10.709984 3.99926,-5.441416 1.16858,4.426452 2.87623,7.537812 4.52839,8.251129 0.47869,0.206684 1.20076,1.275467 1.60457,2.374944 0.40378,1.099477 1.46741,2.364364 2.36365,2.811257 0.89628,0.446867 1.47085,0.895175 1.27694,0.995899 -0.19389,0.100724 0.36295,0.217946 1.23714,0.260347 0.87418,0.04243 0.95959,-0.0077 0.18965,-0.111488 -0.76996,-0.10384 -1.06577,-0.422013 -0.6568,-0.706402 1.17488,-0.817026 1.71209,-2.771371 2.01538,-7.337072 l 0.28162,-4.240928 2.58848,4.626591 c 1.4238,2.544755 2.9143,5.516894 3.31194,6.604611 0.39762,1.087691 1.43992,2.33498 2.31614,2.771868 1.05349,0.525252 1.10077,0.875324 0.14004,1.033742 -0.97213,0.160331 -0.96707,0.481961 0.0155,0.971882 0.80759,0.40266 1.33765,0.869169 1.17771,1.036806 -0.15994,0.167638 0.23485,1.075802 0.87747,2.018431 1.06214,1.55805 1.34548,1.649345 3.11504,1.003572 1.07061,-0.390692 1.63132,-0.846096 1.24643,-1.012267 -0.38484,-0.16617 -0.0279,-0.413004 0.79272,-0.54835 0.82063,-0.13532 1.10045,-0.415283 0.62166,-0.621994 -0.47871,-0.206686 -0.24789,-0.584622 0.51316,-0.840413 0.7611,-0.25579 1.20015,-0.768339 0.97565,-1.138604 -0.22452,-0.370263 0.28448,-0.787221 1.1312,-0.926863 0.98245,-0.162006 1.1207,-0.05811 0.3819,0.28748 -0.93234,0.436103 -0.78171,0.448412 0.77359,0.06343 1.06219,-0.26294 2.08148,-0.750793 2.26496,-1.084417 0.29451,-0.535387 -0.11961,-0.529364 -3.52586,0.05167 l -3.85868,0.658318 3.25096,-0.94784 c 3.54385,-1.033349 4.31715,-1.693186 1.44486,-1.232727 -1.44068,0.230962 -1.44314,0.16947 -0.0129,-0.302303 0.9865,-0.325296 1.31157,-0.720021 0.72244,-0.877234 -0.58912,-0.157215 -0.42111,-0.227716 0.37362,-0.157031 0.79471,0.07068 1.44487,-0.04523 1.44487,-0.257283 0,-0.212081 -0.59757,-0.332001 -1.32808,-0.267026 -0.73057,0.065 -0.40545,-0.185236 0.72242,-0.555997 1.44645,-0.475492 1.49902,-0.585853 0.1783,-0.373904 -1.40851,0.226013 -1.70646,0.02954 -1.2025,-0.793351 0.36848,-0.601723 0.79811,-1.180924 0.95496,-1.286965 0.15689,-0.10604 0.16936,-0.496417 0.0279,-0.867518 -0.14147,-0.371102 0.43434,-0.674687 1.279,-0.674687 0.84465,0 1.53529,-0.183587 1.53529,-0.408185 0,-0.224574 -0.53824,-0.319771 -1.19631,-0.211243 -0.65802,0.108528 -0.64079,-0.878492 0.0383,-2.193873 0.67897,-1.315354 1.46994,-2.912138 1.75749,-3.548327 0.28758,-0.636189 0.67676,-1.330649 0.86509,-1.542703 0.45346,-0.510717 2.90491,2.675204 3.56049,4.627114 0.59936,1.784509 1.66249,3.118798 2.91558,3.659841 0.52639,0.227244 -0.15137,0.274437 -1.68775,0.117119 -2.15389,-0.22054 -2.04817,-0.08742 0.65527,0.829674 2.34614,0.795891 2.80783,1.226128 1.69912,1.582616 -1.071,0.344336 -1.05254,0.566971 0.0625,0.750898 1.14912,0.189506 1.14623,0.402607 -0.0103,0.774416 -1.20661,0.387941 -0.95933,0.611335 1.01391,0.917644 1.79528,0.27868 1.97533,0.408814 0.57825,0.41688 -1.53631,0.0088 -1.36007,0.221143 0.72294,0.872626 2.31812,0.724997 2.34757,0.777008 0.18863,0.330429 -3.4924,-0.722377 -4.22273,-0.402423 -1.28519,0.562676 3.96317,1.30205 6.52351,1.325385 11.86283,0.109445 l 4.99041,-1.136037 -4.79351,0.623513 -4.79404,0.62354 1.84952,-0.890539 c 1.01732,-0.49 1.66532,-1.064671 1.4397,-1.276724 -0.22561,-0.212055 0.41641,-0.168921 1.4268,0.09617 2.58363,0.677777 3.97758,0.598922 3.4096,-0.192857 -0.26627,-0.371102 -0.53401,-0.839444 -0.59481,-1.040918 -0.0608,-0.201447 -0.89066,-0.15779 -1.84433,0.09669 -3.40804,0.909395 -4.48236,0.44354 -1.15599,-0.501289 1.87206,-0.531745 2.59435,-0.964182 1.61126,-0.964182 -0.98015,0 -1.35247,-0.185263 -0.82785,-0.411774 0.52464,-0.22651 2.00617,-0.304083 3.29231,-0.172377 1.28612,0.131706 1.87592,0.115966 1.31104,-0.03478 -0.56497,-0.150744 -0.30274,-0.506709 0.58237,-0.791307 1.09903,-0.353372 1.1217,-0.517657 0.0724,-0.517657 -0.84514,0 -1.93813,0.173635 -2.42933,0.385689 -0.49114,0.212054 -1.6673,0.380137 -2.61379,0.373406 -0.9575,-0.0069 -0.60947,-0.237667 0.78497,-0.520223 1.37842,-0.279282 2.15698,-0.60065 1.73013,-0.714573 -0.42685,-0.113897 0.9715,-0.574199 3.1073,-1.022506 2.13579,-0.448282 3.18272,-0.814826 2.32648,-0.814826 -0.85627,0 -1.32564,-0.32032 -1.04336,-0.711509 0.41349,-0.572864 -0.23522,-0.683487 -3.33415,-0.569825 -3.29041,0.120705 -3.42908,0.09072 -0.95758,-0.207157 2.91735,-0.351618 9.12167,-1.981583 7.54269,-1.981583 -0.46879,0 -2.52037,0.169156 -4.55888,0.375972 -4.30598,0.436837 -4.70225,0.170807 -1.25883,-0.844523 2.31256,-0.681863 2.29984,-0.706272 -0.2367,-0.446527 -1.86134,0.190579 -2.36458,0.136288 -1.6402,-0.176489 0.57764,-0.249165 0.2659,-0.451136 -0.69556,-0.451136 -0.95766,0 -0.0499,-0.418268 2.01691,-0.929404 3.11365,-0.770016 3.36942,-0.969001 1.49294,-1.161126 -1.83065,-0.187462 -1.92259,-0.341821 -0.48006,-0.805633 1.4324,-0.460564 1.3933,-0.574801 -0.19844,-0.579542 -1.55493,-0.0047 -1.51492,-0.08519 0.18447,-0.371861 1.19208,-0.201081 2.24833,-0.719025 2.34768,-1.150912 0.0994,-0.431834 0.3267,-0.828287 0.50487,-0.88132 0.17815,-0.053 0.48054,-0.530201 0.67231,-1.06035 1.88341,-5.206551 4.62949,-5.804582 5.64306,-1.229166 0.34287,1.547654 1.01515,2.918137 1.4945,3.046044 0.47932,0.127909 0.19542,0.450404 -0.63098,0.716119 -1.04103,0.334699 -1.03725,0.559874 0.0129,0.732984 0.83331,0.137415 1.51517,0.423218 1.51517,0.635299 0,0.212054 -0.65014,0.278366 -1.44487,0.147315 -0.79473,-0.131077 -1.44489,-0.06477 -1.44489,0.147313 0,0.212055 0.65016,0.492463 1.44489,0.623514 0.79473,0.131077 1.44487,0.556862 1.44487,0.945799 0,0.38891 1.11974,0.821503 2.48822,0.961615 2.13145,0.218262 2.18321,0.306362 0.36121,0.613824 -1.80105,0.303926 -1.75229,0.359709 0.31678,0.364711 1.34385,0.0031 2.91301,0.209174 3.48763,0.45729 0.72221,0.31181 0.19093,0.370997 -1.72082,0.191811 -2.60244,-0.243953 -2.59485,-0.222478 0.12454,0.365732 2.80032,0.605705 2.76487,0.617202 -1.14514,0.374925 l -4.0349,-0.250133 2.53317,1.072135 2.53318,1.071611 -3.19411,-0.734529 c -4.82126,-1.108591 -3.83209,-0.151243 1.16324,1.125822 2.39679,0.612723 4.12256,1.295975 3.8349,1.518164 -0.28765,0.222164 -0.003,0.895541 0.63355,1.496662 0.95594,0.903215 0.812,1.017112 -0.82889,0.65371 -1.51537,-0.335589 -1.91781,-0.320818 -1.69963,0.06343 0.15722,0.276926 0.76573,0.708655 1.35236,0.959076 0.58667,0.250423 0.30742,0.580459 -0.62063,0.733508 -1.18668,0.195713 -0.89731,0.432594 0.97515,0.797961 2.941,0.573858 5.09265,0.676336 4.82865,0.230177 -0.40677,-0.687441 0.22344,-4.065932 0.7312,-3.920215 0.30787,0.08836 0.99398,1.755282 1.52498,3.704364 1.01565,3.728273 1.91759,5.447517 3.13314,5.972376 1.07918,0.465906 4.56803,0.384222 5.77069,-0.135058 0.72441,-0.312752 0.22117,-0.366544 -1.6402,-0.175965 -2.58699,0.264904 -2.58516,0.245157 0.0434,-0.529913 2.6775,-0.789475 2.67594,-0.799925 -0.0812,-0.570324 -1.54485,0.128642 -1.02066,-0.04272 1.1648,-0.381079 4.80798,-0.744403 5.17337,-1.127839 0.72245,-0.758047 l -3.25097,0.270063 2.95794,-0.725834 c 1.62687,-0.399334 2.11452,-0.574776 1.08365,-0.389749 -1.33794,0.240025 -1.87481,0.108397 -1.87481,-0.45936 0,-0.437569 0.58008,-0.891298 1.28882,-1.00818 0.70871,-0.116883 1.06748,-0.821321 0.79737,-1.5652 -0.27017,-0.743905 0.12502,-1.351914 0.8785,-1.351914 0.7535,0 1.36993,-0.184137 1.36993,-0.408709 0,-0.224574 -0.75062,-0.284311 -1.66812,-0.132989 -1.06357,0.175415 -1.2746,0.105018 -0.58237,-0.193853 0.59713,-0.257834 1.34395,-0.935192 1.65983,-1.505383 0.31586,-0.570166 0.85511,-1.470343 1.19785,-2.000491 0.3428,-0.530176 0.67162,-1.296892 0.73073,-1.703349 0.35568,-2.448117 3.37362,2.478785 3.56412,5.81841 0.0384,0.672855 0.57674,1.139521 1.19629,1.037356 0.61957,-0.10219 1.12657,0.08473 1.12657,0.415335 0,0.330613 -0.77476,0.601017 -1.72136,0.601017 -0.9466,0 -0.45897,0.27483 1.08366,0.610236 2.77593,0.603557 2.77614,0.607171 -0.004,0.368796 -2.75706,-0.236409 -2.75862,-0.226327 -0.0811,0.563174 2.67756,0.789501 2.67653,0.800107 -0.0806,0.563697 -2.50809,-0.215066 -2.56199,-0.185813 -0.49609,0.273127 1.27248,0.282687 2.17463,0.947396 2.004,1.477257 -0.17065,0.529834 0.41371,1.213373 1.29863,1.519159 1.22328,0.42272 1.18028,0.487644 -0.18036,0.269565 -1.19481,-0.191495 -1.51792,-0.09774 -0.97203,0.281849 0.44971,0.312726 1.57954,0.645905 2.51148,0.740657 1.23036,0.12508 1.82967,-1.265856 2.18643,-5.078773 0.27022,-2.888097 1.06315,-5.511472 1.76216,-5.829646 0.93662,-0.426334 1.29174,-0.274437 1.34979,0.577997 0.0435,0.636189 0.43704,2.544939 0.8754,4.241425 0.43829,1.696513 0.95933,4.130252 1.15756,5.408183 0.40473,2.609495 2.53542,4.104429 4.58938,3.219939 0.67881,-0.292298 1.295,-1.051785 1.36943,-1.687974 0.0744,-0.636189 0.70369,-2.110878 1.39785,-3.277216 l 1.26193,-2.120727 1.28002,1.927869 c 0.70382,1.060324 1.35327,2.387647 1.44333,2.949353 0.11819,0.737647 0.7624,0.959941 2.31923,0.800527 1.57605,-0.161378 1.89844,-0.04195 1.19888,0.444509 -0.5262,0.365917 -0.42449,0.577395 0.22636,0.470071 1.34744,-0.222216 1.10966,-3.594001 -0.27956,-3.96471 -0.50168,-0.133879 -0.23421,-0.461166 0.59375,-0.727354 0.82796,-0.266213 1.8197,-0.946504 2.204,-1.512035 0.52015,-0.765406 0.22464,-0.952031 -1.15652,-0.730418 -1.37628,0.220776 -1.34845,0.130868 0.10801,-0.348342 1.09124,-0.359055 2.10079,-1.719586 2.27221,-3.062412 0.16963,-1.328869 0.50017,-3.543824 0.73483,-4.922242 l 0.42685,-2.506389 1.19475,1.905373 c 0.6571,1.047805 1.47514,3.787644 1.81851,6.088997 0.3434,2.301327 1.03002,4.292835 1.52548,4.425064 1.49799,0.399727 1.01066,1.975978 -0.69815,2.257801 -1.09538,0.180627 -1.12393,0.342345 -0.0889,0.513021 0.83106,0.137074 1.83523,0.725991 2.23139,1.308964 0.41299,0.607721 0.14253,0.964916 -0.63407,0.836825 -1.95334,-0.322128 -1.66833,0.354863 0.37931,0.901275 0.95366,0.254482 1.17813,0.462922 0.49868,0.462922 -0.67945,0 0.003,0.373721 1.5167,0.830696 l 2.75281,0.83067 -4.33462,-0.712006 -4.33515,-0.712034 4.33256,1.255251 c 3.41452,0.989481 3.72059,1.195774 1.44486,0.972878 -2.70343,-0.264774 -2.74053,-0.235677 -0.57878,0.45729 3.82157,1.225053 4.94181,1.870357 2.6107,1.504362 -1.1162,-0.175258 -0.72901,0.08566 0.86043,0.579541 l 2.88975,0.897689 -3.55225,-0.237851 c -3.49212,-0.23421 -3.48223,-0.22232 0.586,0.710488 2.27598,0.521847 3.87456,0.973846 3.55225,1.004593 -0.32229,0.03075 -161.04635,0.08768 -357.16477,0.126363 l -356.57817,0.07004 H 461.13083 V 14.78173 h 1.29397 V -297.09473 Z M 121.54175,36.193473 c 0.22852,-0.01574 -0.19772,0.138881 -1.20872,0.482877 -1.88762,0.642265 -3.07372,0.846226 -3.07372,0.528892 0,-0.08006 1.13779,-0.38362 2.52854,-0.674688 1.00262,-0.209802 1.57615,-0.324824 1.7539,-0.337081 z m -44.259313,8.269068 c 0.439367,0.0061 0.54737,0.08231 0.230981,0.218915 -0.848545,0.366362 -3.602355,0.541934 -3.602355,0.229654 0,-0.08334 1.009412,-0.254769 2.242741,-0.381053 0.482203,-0.0494 0.865002,-0.07113 1.128633,-0.06751 z M 95.30924,45.45383 c -1.343845,-0.0031 -2.845065,0.16748 -3.336237,0.379534 -1.130194,0.487984 0.782478,0.487984 3.612197,0 1.867826,-0.322101 1.8297,-0.374454 -0.27596,-0.379534 z m -116.650763,1.649607 c -0.584579,-0.0072 -1.097571,0.02302 -1.403017,0.105386 -0.929968,0.250735 6.962545,2.089848 8.982398,2.093096 0.654306,0.0012 0.954024,-0.302041 0.666625,-0.673142 -0.287393,-0.371128 -1.628431,-0.650567 -2.980179,-0.621497 -1.351746,0.02907 -2.143302,-0.08321 -1.759066,-0.249112 0.643067,-0.277632 -1.753032,-0.633203 -3.506761,-0.654731 z m 135.229463,0.443489 c 0.26363,-0.0036 0.64643,0.01815 1.12863,0.06751 2.50322,0.256314 2.96106,0.532481 0.88262,0.532481 -0.74779,0 -1.7567,-0.171436 -2.24223,-0.38108 -0.31639,-0.136604 -0.20839,-0.212919 0.23098,-0.218916 z m -17.856255,0.223028 c -0.946494,-0.0047 -2.129632,0.167584 -2.628795,0.383096 -0.499162,0.215537 -1.350221,0.320503 -1.891347,0.233267 -0.541126,-0.08723 -1.822133,0.0837 -2.846864,0.379535 -2.941664,0.849264 1.117891,0.676336 5.475632,-0.233242 1.986782,-0.414707 2.837841,-0.757942 1.891374,-0.762656 z m 275.841035,0.01993 c 0.18716,0.0015 0.34303,0.01637 0.45423,0.04604 0.4449,0.118716 -0.35679,0.334489 -1.78181,0.479289 -2.0593,0.209226 -2.22514,0.16494 -0.80872,-0.215851 0.73506,-0.197651 1.57472,-0.313878 2.1363,-0.309478 z m -271.53589,0.549869 -3.55275,0.867517 c -1.953921,0.477143 -4.362026,0.867519 -5.351092,0.867519 -0.989065,0 -1.413854,0.166014 -0.944139,0.368798 1.294897,0.559087 4.634336,0.07281 7.385606,-1.075698 z m 275.33618,0.31613 c -0.44024,-0.0063 -1.46979,0.09216 -2.66187,0.26239 -1.5894,0.226982 -2.88975,0.499088 -2.88975,0.605128 0,0.106014 1.30035,0.0076 2.88975,-0.21944 1.58943,-0.226981 2.88975,-0.499586 2.88975,-0.605626 0,-0.02651 -0.0811,-0.04038 -0.22788,-0.04245 z m -174.28755,0.376968 c -0.65093,-0.0078 -1.54517,0.03493 -2.40297,0.122775 -1.97779,0.202521 -2.09548,0.323174 -0.56793,0.581584 2.54407,0.430315 3.00821,0.418504 1.92754,-0.04808 -0.49117,-0.212055 -0.0961,-0.385166 0.87799,-0.385166 0.97407,0 1.43098,-0.09103 1.01492,-0.202049 -0.15602,-0.04164 -0.45903,-0.06445 -0.84955,-0.06906 z m -217.771213,0.443986 c -0.818423,-0.0072 -0.956173,0.190108 -0.0708,0.572392 0.523846,0.22617 2.052334,0.405723 3.396176,0.398966 2.145213,-0.01076 2.103051,-0.0809 -0.341582,-0.574408 -1.299131,-0.262286 -2.347249,-0.391372 -2.983796,-0.39695 z m 39.776375,0.211268 c 0.177747,0.01223 0.751258,0.127777 1.753897,0.33758 1.390756,0.291066 2.529046,0.594626 2.529046,0.674686 0,0.317336 -1.186603,0.113373 -3.07422,-0.528891 -1.011,-0.343995 -1.437243,-0.499115 -1.208723,-0.483375 z m -115.766568,0.04858 c 0.501962,0.0056 0.933495,0.04133 1.17357,0.105385 0.480134,0.128118 -0.373335,0.219282 -1.896525,0.202547 -1.683269,-0.01852 -2.025478,-0.110178 -0.872813,-0.233241 0.521523,-0.05571 1.093806,-0.0802 1.595768,-0.07469 z m 105.906183,0.338102 c -0.869395,0 -1.98904,0.176306 -2.488208,0.391818 -0.499163,0.215537 -1.4446463,0.303167 -2.1011648,0.1949 -0.6565318,-0.108292 -1.5664101,0.06267 -2.0220967,0.379534 -1.1528239,0.801653 0.9116351,0.718921 4.8601685,-0.194873 1.832607,-0.424136 2.620721,-0.771379 1.751301,-0.771379 z m 71.459221,0.170859 c -0.439367,0.0061 -0.547396,0.08284 -0.231008,0.21944 0.848546,0.36636 3.601853,0.541436 3.601853,0.229155 0,-0.08336 -1.008883,-0.254795 -2.242238,-0.381079 -0.482203,-0.04937 -0.865003,-0.07113 -1.128607,-0.06751 z m 127.734822,0.03119 c -0.11514,0.0025 -0.2377,0.01339 -0.3643,0.03428 -0.67522,0.111357 -0.8536,0.364214 -0.39637,0.561629 1.1684,0.504483 1.62367,0.447573 1.62367,-0.202549 0,-0.250866 -0.36407,-0.404282 -0.863,-0.39336 z m -86.9802,0.140661 c -0.54349,-6.28e-4 -1.1764,0.157922 -1.67431,0.524807 -0.5233,0.385584 -1.26522,0.385584 -3.71245,0 -3.88641,-0.612304 -4.5434,-0.604919 -4.5434,0.04962 0,0.292219 1.46288,0.821399 3.25096,1.175948 l 3.25149,0.644518 -3.25302,-0.175965 c -1.91572,-0.10371 -2.89037,-0.01972 -2.37094,0.204589 0.68361,0.295154 7.48475,0.142915 8.75451,-0.195895 0.13568,-0.0362 0.69525,-0.542589 1.24336,-1.125325 0.61888,-0.658005 -0.0404,-1.101231 -0.9462,-1.102306 z m -145.215433,0.180051 c -0.751835,-0.01254 -0.0055,0.150642 2.351794,0.63378 l 3.6127,0.740658 -3.6127,-0.210745 c -2.599547,-0.151714 -3.054083,-0.105805 -1.621089,0.164705 1.095198,0.206763 1.613138,0.539523 1.150834,0.739138 -0.46232,0.199588 0.554987,0.335328 2.260844,0.301778 1.705856,-0.03354 3.362745,-0.269774 3.681944,-0.525329 0.796491,-0.637603 -2.02166,-1.467592 -5.880777,-1.731449 -0.950304,-0.06498 -1.601809,-0.106826 -1.94355,-0.112536 z m 289.867583,0.238873 c 0.96702,-0.0081 1.70838,0.39695 1.16271,0.83376 -0.48943,0.391818 -0.83011,0.39187 -1.74046,-9.93e-4 -0.62243,-0.268728 -0.74149,-0.592925 -0.26458,-0.720204 0.28289,-0.07547 0.57158,-0.110257 0.84233,-0.112536 z M -58.970234,51.61597 c -0.228521,-0.01574 0.19721,0.138881 1.208196,0.482877 1.887609,0.642238 3.074231,0.846724 3.074231,0.529389 0,-0.08006 -1.137785,-0.38362 -2.528528,-0.674661 -1.002641,-0.209828 -1.57616,-0.325349 -1.753899,-0.337605 z m -84.580366,0.129401 c -1.12216,0 -1.70536,0.145036 -1.29605,0.32176 0.40929,0.176699 0.9925,0.321212 1.29605,0.321212 0.30354,0 0.88626,-0.144513 1.29553,-0.321212 0.40933,-0.176724 -0.17339,-0.32176 -1.29553,-0.32176 z m 238.70998,0.04706 c -0.487019,2.1e-4 -0.61132,0.07451 -0.286306,0.21483 0.485537,0.209645 -0.177562,0.38108 -1.473279,0.38108 -2.854008,0 -6.73563,0.96083 -5.36194,1.327375 0.541628,0.144539 1.216528,0.07778 1.499632,-0.14886 0.283104,-0.226641 0.964776,-0.337815 1.515163,-0.247043 0.550359,0.09074 2.525104,-0.14171 4.38785,-0.516634 2.957988,-0.595387 3.080226,-0.713108 0.967898,-0.929405 -0.534299,-0.05471 -0.956812,-0.08145 -1.249018,-0.08134 z m -208.46273,0.678772 -6.62957,0.544763 c -6.69998,0.550733 -10.70504,1.685932 -5.94899,1.685932 2.98867,0 11.90843,-1.633711 12.57856,-2.230695 z m -0.0842,1.310484 c -0.5495,0.0082 -1.29031,0.0975 -2.36885,0.263437 -5.3342,0.820614 -9.65563,1.920064 -8.87336,2.2578 0.95768,0.413502 4.8527,-0.130527 8.38088,-1.170842 1.48807,-0.438774 3.26146,-0.706428 3.94085,-0.594365 0.6794,0.112038 0.85941,-0.05683 0.40049,-0.375972 -0.3838,-0.266869 -0.7735,-0.390586 -1.48001,-0.380058 z m 359.8111,0.03939 c -0.23169,0.0026 -1.04023,0.229837 -2.46443,0.68697 -2.24359,0.720099 -3.21051,1.37394 -2.56575,1.735037 0.56912,0.318697 0.91951,0.971463 0.77875,1.450622 -0.20415,0.695088 0.14274,0.783006 1.71516,0.434794 1.47527,-0.326711 1.97041,-0.322076 1.97041,0.01893 0,0.250526 0.71982,0.336872 1.5994,0.19181 1.12297,-0.18521 1.03569,-0.356906 -0.29249,-0.575954 -1.04032,-0.171565 -2.37054,-0.232691 -2.9564,-0.136079 -1.52853,0.252072 -0.99116,-1.483358 0.63716,-2.057792 0.75142,-0.265088 0.93861,-0.482354 0.41598,-0.482354 -0.5226,0 -0.21936,-0.390377 0.67387,-0.867518 0.49969,-0.266895 0.66855,-0.400461 0.48834,-0.398469 z m 7.93337,0.109471 c -0.7947,0 -1.04306,0.173609 -0.55192,0.385689 0.49118,0.212054 1.54316,0.385663 2.33786,0.385663 0.79473,0 1.04307,-0.173609 0.5519,-0.385663 -0.49115,-0.21208 -1.54313,-0.385689 -2.33784,-0.385689 z m -131.9971,0.03633 v 4.98e-4 c -0.13317,-2.6e-5 -0.26802,2.62e-4 -0.40463,0.0016 l -3.9734,0.03836 3.61217,0.308955 c 1.98678,0.169784 3.77473,0.325662 3.9734,0.346797 0.19868,0.02113 0.36121,-0.134743 0.36121,-0.346797 0,-0.198829 -1.57157,-0.348841 -3.56875,-0.349365 z m -156.911877,0.01993 c -0.218551,0.0043 -1.016603,0.134771 -2.434992,0.367278 -1.788102,0.29311 -3.251483,0.665024 -3.251483,0.826087 0,0.161038 -0.975239,0.292586 -2.167308,0.292586 -2.804724,0 -2.740562,0.348291 0.224274,1.222488 2.577179,0.759907 3.779374,0.858064 5.359881,0.436339 0.554723,-0.148048 -0.474691,-0.504222 -2.287717,-0.791308 -1.813028,-0.287113 -2.321197,-0.450088 -1.12913,-0.362144 2.690127,0.198435 10.114629,-0.766533 10.114629,-1.314596 0,-0.222006 -1.724745,-0.04145 -3.832842,0.401036 -4.690861,0.984585 -6.318996,0.718293 -2.539896,-0.415361 1.548511,-0.464519 2.225582,-0.667852 1.944584,-0.662405 z m 66.268829,0.02457 c -2.518198,-0.01579 -3.301709,1.734618 -0.977715,2.481849 2.85295,0.917278 4.346337,0.563383 3.885036,-0.920734 -0.286358,-0.921154 -1.247298,-1.483281 -2.658242,-1.554463 -0.0848,-0.0043 -0.167852,-0.0062 -0.249079,-0.0067 z M 390.7119,54.321837 c -2.16096,0.0051 -2.21348,0.06066 -0.36121,0.380058 2.72688,0.470254 2.89026,0.470254 2.89026,0 0,-0.212055 -1.13829,-0.383306 -2.52905,-0.380058 z m -596.74961,0.197964 c 0.54032,-0.004 0.64618,0.115626 0.50694,0.368797 -0.44601,0.810871 -1.41487,0.971594 -3.64008,0.604604 -1.54197,-0.254297 -1.33011,-0.412742 0.99477,-0.744769 1.03501,-0.147786 1.71812,-0.225567 2.13837,-0.228632 z m 588.44159,0.160618 3.6122,0.773395 c 3.36976,0.721225 9.50269,1.176892 6.43009,0.477744 -0.75499,-0.171775 -3.32354,-0.523418 -5.70768,-0.781592 z m -263.45679,0.0271 c -2.08431,0.0052 -2.11701,0.05633 -0.24286,0.379535 1.19203,0.205586 1.64132,0.376286 0.99838,0.379534 -1.52831,0.0078 0.25318,0.777506 1.79938,0.777506 0.6505,0 1.92939,-0.240181 2.84168,-0.533501 1.78916,-0.575272 -0.57595,-1.014885 -5.39658,-1.003074 z m -87.626161,0.122749 c 0.204682,0.0023 0.438944,0.02351 0.687282,0.06445 0.794729,0.131077 1.444889,0.31469 1.444889,0.408186 0,0.09352 -0.65016,0.169836 -1.444889,0.169836 -0.794703,0 -1.444863,-0.183612 -1.444863,-0.408185 0,-0.154411 0.30726,-0.239186 0.757581,-0.23429 z m -141.968599,0.06445 -3.44733,0.844001 c -1.89596,0.464308 -4.09749,0.897819 -4.89221,0.963685 -1.42467,0.118061 -2.1251,3.024124 -0.72244,2.997436 0.39736,-0.0076 2.66537,-0.437255 5.04,-0.95499 l 4.31757,-0.941163 -4.93975,-0.263437 c -4.37318,-0.233399 -4.5889,-0.298636 -1.88309,-0.56574 1.68099,-0.165935 3.83743,-0.701688 4.79196,-1.190772 z m 183.284424,0.192334 c -0.794729,0 -1.846686,0.173608 -2.337858,0.385688 -0.491147,0.212055 -0.242809,0.385664 0.55192,0.385664 0.794703,0 1.846686,-0.173609 2.337832,-0.385664 0.491173,-0.21208 0.242808,-0.385688 -0.551894,-0.385688 z m -90.593959,0.154988 c -1.110266,-0.01032 -0.493231,0.361542 1.92133,0.850652 3.307503,0.669973 4.21473,0.6612 4.21473,-0.04143 0,-0.318094 -0.302398,-0.498067 -0.671793,-0.39949 -0.369398,0.09857 -1.886445,0.006 -3.371371,-0.206136 -0.959226,-0.136996 -1.658443,-0.199562 -2.092896,-0.203596 z m 316.243215,0.294131 c 0.16558,8.38e-4 0.44016,0.03127 0.81494,0.09308 1.1941,0.196942 1.24357,0.489555 0.17262,1.023527 -1.61237,0.803931 -2.84324,0.970783 -2.84324,0.385165 0,-0.199535 0.66045,-0.471904 1.46812,-0.605102 0.80769,-0.133198 1.03283,-0.430708 0.49972,-0.660885 -0.36208,-0.156323 -0.38804,-0.237223 -0.11216,-0.235782 z m -200.459604,0.32225 c -0.551444,0 -1.978289,0.260425 -3.17037,0.578519 -1.192053,0.318095 -1.549982,0.577997 -0.795813,0.577997 0.754168,0 2.18051,-0.259902 3.16984,-0.577997 0.98933,-0.318094 1.347761,-0.578519 0.796343,-0.578519 z m 218.298284,0.05473 c -0.0952,-9.94e-4 -0.18129,0.0078 -0.2558,0.02763 -0.39735,0.106014 -0.30234,0.485366 0.21188,0.842953 0.51425,0.357589 1.26093,0.563331 1.6583,0.457291 0.39733,-0.10604 0.30131,-0.485366 -0.21291,-0.842953 -0.41785,-0.290544 -0.98898,-0.480625 -1.40147,-0.484921 z m 55.82502,0.368797 c -0.71395,0.02129 -2.8127,0.383043 -6.09833,1.132475 -3.31007,0.755035 -5.47804,1.009175 -6.43062,0.754983 -0.79028,-0.210876 -2.44496,-0.371363 -3.67678,-0.357012 -1.47799,0.01723 -1.1331,0.168397 1.01235,0.444484 1.78806,0.230124 3.25096,0.565111 3.25096,0.74477 0,0.529572 0.75833,0.405331 7.40265,-1.215338 4.08588,-0.996632 5.45772,-1.531756 4.53977,-1.504362 z m -204.05833,0.03428 c -0.12552,0.0022 -0.26329,0.0098 -0.41188,0.02302 -0.99877,0.08873 -1.89066,0.544029 -1.98231,1.011743 -0.21698,1.107621 2.63914,0.853534 3.29491,-0.293083 0.28829,-0.50409 -0.0222,-0.757026 -0.90072,-0.74168 z m -94.03199,0.312019 c -0.177747,0.01223 -0.751787,0.127777 -1.754426,0.33758 -2.406888,0.503697 -3.172063,0.820482 -1.982814,0.820482 0.300038,0 1.437825,-0.303586 2.528517,-0.674687 1.011,-0.343996 1.437243,-0.499115 1.208723,-0.483375 z m 49.26468,0.08543 c -0.59664,0.0031 -1.04852,0.205454 -1.04852,0.494113 0,0.329879 0.59073,0.547066 1.3126,0.48285 0.72186,-0.06421 1.31206,-0.281403 1.31206,-0.48285 0,-0.201474 -0.5902,-0.418661 -1.31206,-0.482877 -0.0902,-0.0081 -0.17884,-0.01171 -0.26408,-0.01124 z m -194.653228,0.0271 c -0.305829,-0.0012 -0.560406,0.147629 -0.988052,0.445007 -0.541303,0.376392 -0.332359,0.543532 0.506944,0.405122 0.785609,-0.129558 1.428338,-0.0231 1.428338,0.236829 0,0.259902 0.385048,0.369949 0.855244,0.244477 0.470159,-0.125447 0.241501,-0.520564 -0.507463,-0.877732 -0.632177,-0.301439 -0.989227,-0.452524 -1.295011,-0.453703 z m 83.429006,0.0271 c -1.123127,-0.0068 -3.3296254,0.223446 -5.0322403,0.60052 C 5.5953746,57.65014 4.55457,57.751413 4.55457,57.59344 c 0,-0.157947 -0.9752436,-0.07115 -2.1673106,0.192858 -1.56906378,0.347479 -2.16730786,0.356854 -2.16730786,0.03376 0,-0.32404 -0.77756807,-0.335485 -2.83652114,-0.04143 -1.6670576,0.23806 -2.4967168,0.640981 -2.0127965,0.977486 1.0315204,0.717297 2.4866017,0.718686 7.6357108,0.0082 2.2483683,-0.310238 4.4873518,-0.841696 4.9754049,-1.181057 0.4880398,-0.339385 1.4968299,-0.516294 2.2422404,-0.393362 0.745411,0.122933 1.728827,0.06239 2.18489,-0.134534 0.449024,-0.193879 0.164861,-0.28342 -0.509032,-0.287453 z m 64.849268,0.246022 c -0.177721,0.01225 -0.751761,0.127777 -1.754399,0.337605 -2.406888,0.503697 -3.172063,0.820457 -1.98284,0.820457 0.300063,0 1.437825,-0.30356 2.528543,-0.674688 1.010973,-0.343969 1.437243,-0.499114 1.208696,-0.483374 z m 297.432484,9.94e-4 c -0.39735,0 -1.89883,0.347243 -3.33724,0.771378 -1.43843,0.424109 -2.29028,0.770828 -1.89291,0.770828 0.39735,0 1.89937,-0.346719 3.33777,-0.770828 1.43841,-0.424135 2.28974,-0.771378 1.89238,-0.771378 z m 12.60494,0.044 c -0.73671,0 -0.64627,0.113949 0.67437,0.341691 1.19208,0.205559 3.14253,0.364083 4.33462,0.352428 1.42912,-0.01395 1.18255,-0.133931 -0.72295,-0.352428 -1.98612,-0.227742 -3.54933,-0.341691 -4.28604,-0.341691 z m -359.835393,0.365209 3.612171,0.552959 c 4.477041,0.685399 4.334615,0.682413 4.334615,0.08593 0,-0.271844 -1.787948,-0.526927 -3.973406,-0.56676 z m -60.890869,0.09053 c -0.611508,0.0024 -1.39926,0.01545 -2.370397,0.03836 -3.005077,0.07097 -5.876621,0.239186 -6.381522,0.373929 -1.471113,0.392551 7.291239,0.270273 9.67796,-0.135057 1.155698,-0.196262 0.90849,-0.284232 -0.926041,-0.27724 z m 17.993735,0.127385 c -0.246729,-0.0014 -0.520851,0.01203 -0.812871,0.04193 -1.685179,0.172561 -1.706549,0.267262 -0.120407,0.53557 1.06003,0.179292 1.981719,0.328702 2.047939,0.331949 0.06618,0.0031 0.119888,-0.237667 0.119888,-0.535543 0,-0.231697 -0.494366,-0.369793 -1.234549,-0.373904 z m -100.873433,0.194414 c 0.65474,0 1.30941,0.02681 1.80609,0.08029 0.99339,0.106957 0.18068,0.194377 -1.80609,0.194377 -1.98678,0 -2.79949,-0.08742 -1.80609,-0.194377 0.4967,-0.05348 1.15136,-0.08029 1.80609,-0.08029 z m -24.77161,0.351905 c -1.04644,-0.02315 -1.01521,0.198488 0.84491,0.57391 1.54264,0.311365 1.9919,0.566239 0.99839,0.566239 -0.9935,0 -1.43235,0.161665 -0.97514,0.35908 0.45725,0.197414 0.16022,0.469259 -0.66042,0.604604 -1.71649,0.28308 -0.55121,0.96421 1.65003,0.96421 0.81404,0 1.1892,-0.216769 0.83302,-0.481856 -0.35619,-0.265088 -0.0179,-0.807546 0.75138,-1.205622 1.00192,-0.51839 0.84394,-0.817916 -0.55656,-1.054719 -1.24176,-0.209985 -2.25774,-0.311966 -2.88561,-0.325846 z m -66.5086,0.05217 c 0.51766,-0.0058 -0.60276,0.46127 -3.36104,1.317135 -1.98583,0.616154 -3.61122,0.933489 -3.61218,0.705381 -9.7e-4,-0.228109 1.62334,-0.822159 3.61012,-1.3202 1.88765,-0.473212 3.0089,-0.698388 3.3631,-0.702316 z m 12.12122,0.01126 c -0.36618,-0.0014 0.0359,0.145351 0.94827,0.438879 1.09069,0.350858 2.87865,0.63784 3.9734,0.63784 1.09475,0 1.91363,0.12995 1.81952,0.288997 -0.28102,0.474916 0.12329,0.867519 0.89349,0.867519 0.39735,0 0.72243,-0.255633 0.72243,-0.568281 0,-0.312646 -2.11303,-0.860054 -4.69583,-1.216358 -2.16064,-0.298086 -3.2951,-0.447261 -3.66128,-0.448596 z m 316.05617,0.143229 c -1.82031,0.0225 -1.97141,0.419473 0.43201,0.678249 2.84678,0.306518 3.97391,0.282163 3.97391,-0.08543 0,-0.187332 -1.30032,-0.431285 -2.88975,-0.542196 -0.58703,-0.04096 -1.09612,-0.05581 -1.51617,-0.05063 z M 12.085374,58.585793 c -0.561539,-0.0045 -1.401186,0.111829 -2.1363018,0.309453 -1.4164072,0.380817 -1.250577,0.425103 0.8087358,0.215851 1.425012,-0.144774 2.226673,-0.360547 1.781802,-0.479262 -0.111231,-0.02968 -0.267044,-0.04458 -0.454236,-0.04605 z m 330.307496,0.357038 c -0.39735,0 -1.89886,0.347218 -3.33727,0.771352 -1.43841,0.424108 -2.29026,0.770828 -1.89291,0.770828 0.39738,0 1.89987,-0.34672 3.3383,-0.770828 1.43838,-0.424134 2.28923,-0.771352 1.89188,-0.771352 z m -120.465,0.0077 c -1.2759,0.0097 -2.75294,0.08551 -4.21061,0.234761 -1.94662,0.199352 -1.64624,0.361044 1.68775,0.905885 4.07567,0.666071 6.15077,0.442703 6.2017,-0.66649 0.0148,-0.322049 -1.55239,-0.490263 -3.67884,-0.474156 z m -52.16996,0.163159 c -0.26361,-0.0036 -0.6464,0.01815 -1.12861,0.06751 -2.50322,0.25634 -2.96209,0.533003 -0.88365,0.533003 0.74782,0 1.75723,-0.171434 2.24274,-0.38108 0.31639,-0.136603 0.20891,-0.213442 -0.23048,-0.219439 z m -283.71187,0.21229 c -0.12184,-0.01467 -0.80696,0.113819 -2.14353,0.375449 -1.58943,0.311102 -3.16065,0.614661 -3.49178,0.67466 -0.33112,0.06 0.077,0.108948 0.90692,0.108948 0.82985,0 2.40057,-0.30356 3.49126,-0.674661 0.91719,-0.312071 1.35898,-0.469756 1.23713,-0.484396 z m 190.731519,0 c -0.121867,-0.01467 -0.807509,0.113819 -2.144051,0.375449 -1.589432,0.311102 -3.16066,0.614661 -3.491786,0.67466 -0.331126,0.06 0.07699,0.108948 0.906912,0.108948 0.829866,0 2.401068,-0.30356 3.491786,-0.674661 0.917178,-0.312071 1.358979,-0.469756 1.237139,-0.484396 z m 168.357681,0.0026 c -1.19208,0 -2.16731,0.168004 -2.16731,0.373406 0,0.205402 0.97523,0.273468 2.16731,0.1514 1.19205,-0.122067 2.16731,-0.290046 2.16731,-0.373406 0,-0.08334 -0.97526,-0.1514 -2.16731,-0.1514 z M 6.8464199,59.397031 C 6.529539,59.39067 5.7787362,59.433695 4.55457,59.52185 c -1.9867801,0.143071 -5.07556291,0.246964 -6.8636647,0.2307 -1.7880991,-0.01626 -3.2509645,0.141711 -3.2509645,0.351408 0,0.20967 0.6885252,0.381053 1.530141,0.381053 0.8416131,0 1.1283288,0.173634 0.6371696,0.385689 -1.2517279,0.540441 1.0189607,0.480415 6.6977815,-0.177485 2.6740617,-0.309792 3.8864777,-0.572601 2.6944108,-0.584151 -1.9265689,-0.01864 -1.9265689,-0.06707 0,-0.434269 0.9443614,-0.18 1.2543922,-0.269619 0.8469762,-0.277764 z M 220.81268,59.499352 c 0.26363,-0.0036 0.64643,0.01815 1.12863,0.06751 2.50322,0.256314 2.96156,0.532977 0.88312,0.532977 -0.74779,0 -1.7572,-0.171933 -2.24274,-0.381577 -0.31638,-0.136603 -0.20838,-0.212919 0.23099,-0.218917 z M 94.225586,60.099846 c -0.841613,0 -1.530138,0.173111 -1.530138,0.385165 0,0.21208 0.286702,0.385689 0.637169,0.385689 0.350441,0 1.038966,-0.173609 1.530138,-0.385689 0.491146,-0.212054 0.204444,-0.385165 -0.637169,-0.385165 z m 304.839794,0 c -0.76976,0 -1.02537,0.259928 -0.56793,0.578023 0.45746,0.318094 1.08757,0.57852 1.39991,0.57852 0.31231,0 0.56793,-0.260426 0.56793,-0.57852 0,-0.318095 -0.63014,-0.578023 -1.39991,-0.578023 z m -39.10976,0.044 c -1.06603,-0.008 -1.65965,0.299866 -0.71572,0.707424 0.53183,0.229627 1.62853,0.308352 2.43758,0.174917 0.98689,-0.162739 0.96173,-0.378329 -0.076,-0.655228 -0.57954,-0.154648 -1.16133,-0.223474 -1.64589,-0.227113 z m -327.420839,0.08899 c -0.219022,-0.0088 -0.369067,0.132073 -0.41238,0.412795 -0.06271,0.406458 0.278448,0.634514 0.758614,0.506395 0.480113,-0.128118 0.531653,-0.460799 0.114194,-0.739112 -0.172958,-0.115364 -0.329036,-0.174761 -0.460428,-0.180078 z m 144.018579,0.251156 c -0.22852,-0.01574 0.19722,0.139404 1.20819,0.483374 1.88762,0.642265 3.07425,0.846253 3.07425,0.528918 0,-0.08009 -1.13779,-0.383646 -2.52854,-0.674687 -1.00264,-0.209828 -1.57615,-0.325349 -1.7539,-0.337605 z m -135.960694,9.94e-4 c -0.841586,0 -1.128315,0.173634 -0.637169,0.385689 0.491172,0.212054 1.179697,0.385689 1.530138,0.385689 0.350467,0 0.637196,-0.173635 0.637196,-0.385689 0,-0.212055 -0.688525,-0.385689 -1.530165,-0.385689 z m 173.029774,0.0062 c -1.03402,0.0035 -0.85532,0.154961 0.44699,0.379534 2.77587,0.478687 3.27551,0.478687 2.1668,0 -0.49117,-0.212055 -1.66732,-0.382782 -2.61379,-0.379534 z m -137.029375,0.04092 c -0.282946,0.0058 -1.031055,0.105622 -2.320793,0.288999 -3.362298,0.478084 -4.189941,0.820482 -1.982814,0.820482 0.697389,0 2.160244,-0.288631 3.250962,-0.641452 1.011476,-0.327183 1.416447,-0.475361 1.052645,-0.468029 z M 404.71412,60.8707 c -0.84161,0 -1.12831,0.173608 -0.63717,0.385689 0.49118,0.212054 1.1802,0.385164 1.53065,0.385164 0.35046,0 0.63769,-0.17311 0.63769,-0.385164 0,-0.212081 -0.68955,-0.385689 -1.53117,-0.385689 z m -420.869913,0.170832 c -0.439365,0.0061 -0.547381,0.08234 -0.230995,0.218942 0.848551,0.366361 3.602366,0.541934 3.602366,0.229654 0,-0.08334 -1.00941,-0.254769 -2.242759,-0.381054 -0.482204,-0.04939 -0.864995,-0.07113 -1.128612,-0.06754 z m -73.242558,0.05013 c -0.623666,0.0093 -0.885029,0.08034 -0.606682,0.20053 0.777732,0.335799 4.973857,0.506291 4.973857,0.202051 0,-0.08132 -1.30129,-0.238899 -2.891814,-0.349889 -0.596445,-0.04161 -1.101164,-0.05827 -1.475361,-0.05269 z m 455.465741,0.16473 c -0.75417,0 -2.18154,0.2604 -3.17087,0.578494 -0.98933,0.318094 -1.34724,0.578022 -0.79582,0.578022 0.55142,0 1.97827,-0.259928 3.17035,-0.578022 1.19205,-0.318094 1.55048,-0.578494 0.79634,-0.578494 z m -145.94253,0.0056 c -2.10563,0.0052 -2.14378,0.05795 -0.27593,0.380058 2.82969,0.487983 4.7429,0.487983 3.6127,0 -0.49117,-0.212055 -1.99292,-0.383306 -3.33677,-0.380058 z M 6.4645309,61.324925 c -0.7767955,-0.002 -2.3979082,0.180732 -4.0323135,0.466484 -2.01158734,0.351721 -3.6576555,0.461977 -3.6576555,0.245026 0,-0.216952 -0.7295938,-0.394384 -1.6216074,-0.394384 -1.1706093,0 -1.1540569,0.150327 0.059944,0.540677 1.4398598,0.462947 2.31023051,0.456976 6.0466604,-0.04041 2.4006069,-0.319561 4.019804,-0.673063 3.5977115,-0.785677 -0.079142,-0.02113 -0.213479,-0.03127 -0.3927395,-0.03171 z M 256.32164,61.4037 c -0.1973,-8.64e-4 -0.31229,0.03601 -0.31782,0.114054 -0.0176,0.249714 2.08097,0.898265 4.66378,1.441429 4.7579,1.000612 8.30855,1.279188 8.30855,0.652165 0,-0.18906 -1.78741,-0.459648 -3.97287,-0.601514 -2.18549,-0.141893 -5.09786,-0.637525 -6.47094,-1.101807 -0.94396,-0.319196 -1.77663,-0.502442 -2.2107,-0.504327 z M 11.662662,62.212898 c -1.13896,-0.01739 -10.282674,0.941661 -11.32230652,1.204601 -1.53464418,0.388124 3.35772122,0.09106 7.17579092,-0.435816 2.3446714,-0.323516 4.2627896,-0.661619 4.2627896,-0.751395 0,-0.01035 -0.04034,-0.01621 -0.116274,-0.01739 z m -219.564892,0.198986 c -0.17773,0.01223 -0.75127,0.127751 -1.7539,0.337579 -1.39074,0.291041 -2.52904,0.594627 -2.52904,0.674688 0,0.317334 1.18662,0.113373 3.07423,-0.528893 1.01099,-0.343995 1.43724,-0.499114 1.20871,-0.483374 z m 575.44033,0.02965 c -0.56158,-0.0045 -1.40171,0.111329 -2.13683,0.308954 -1.41639,0.380791 -1.25005,0.425103 0.80926,0.215877 1.42502,-0.1448 2.22668,-0.360075 1.78181,-0.478791 -0.11121,-0.02967 -0.26707,-0.04455 -0.45424,-0.04604 z m -147.17294,0.08697 c -0.37613,0.01011 -0.0536,0.147368 0.90072,0.4542 2.0809,0.669056 2.91817,0.738798 2.91817,0.242984 0,-0.189374 -1.06746,-0.45365 -2.37194,-0.587215 -0.74369,-0.07616 -1.22126,-0.116044 -1.44695,-0.109969 z m -65.55362,0.649101 c -1.20568,0.01872 -2.71145,0.536068 -1.99472,0.845519 0.6,0.259064 1.3448,0.219466 2.11254,-0.112012 0.65215,-0.281586 0.93896,-0.57742 0.6377,-0.657794 -0.21529,-0.05746 -0.47728,-0.08004 -0.75552,-0.07571 z m 287.47135,0.0067 c -0.84161,0 -1.12837,0.173608 -0.63717,0.385663 0.49112,0.212079 1.17967,0.385164 1.53014,0.385164 0.35044,0 0.63717,-0.173085 0.63717,-0.385164 0,-0.212055 -0.68852,-0.385663 -1.53014,-0.385663 z M 59.409621,63.5684 c -0.177747,0.01224 -0.751258,0.127778 -1.753896,0.33758 -1.390756,0.291067 -2.528544,0.59515 -2.528544,0.67521 0,0.317336 1.18663,0.11285 3.074247,-0.529415 1.010973,-0.343995 1.436714,-0.499115 1.208193,-0.483375 z m 370.676089,0.0015 c -1.28588,0 -1.93607,0.173635 -1.44489,0.385688 0.49114,0.212055 1.14133,0.385166 1.44489,0.385166 0.30355,0 0.95371,-0.173111 1.44486,-0.385166 0.49117,-0.212053 -0.15899,-0.385688 -1.44486,-0.385688 z m -168.50445,0.385688 c -3.30589,0 1.85301,1.120324 6.9882,1.517641 0.17373,0.01344 -0.0569,-0.235049 -0.51263,-0.551912 -0.45569,-0.31689 -1.36509,-0.487303 -2.02157,-0.379038 -0.65657,0.108294 -1.60253,0.02012 -2.10169,-0.195397 -0.49917,-0.215511 -1.55761,-0.391294 -2.35231,-0.391294 z m -474.34882,0.12838 c -1.08938,1.05e-4 -1.77896,0.274515 -1.53221,0.610236 0.61197,0.832582 0.55222,0.803591 1.63298,0.803591 0.52981,0 0.53527,-0.114185 0.0124,-0.253722 -0.5229,-0.139536 -0.31633,-0.457657 0.45889,-0.7069 0.96312,-0.309662 0.78199,-0.453152 -0.57155,-0.453205 z M 5.5214368,64.491153 c -0.3886914,0 -0.9865889,0.07967 -1.6893037,0.23531 -1.1920669,0.263987 -2.1673105,0.539865 -2.1673105,0.613273 0,0.07341 0.9752436,0.03354 2.1673105,-0.08846 1.192067,-0.122067 2.1673106,-0.397971 2.1673106,-0.613299 0,-0.09873 -0.1756913,-0.146817 -0.4780069,-0.146817 z M -165.13946,65.497814 c -0.35045,0 -1.03898,0.173084 -1.53014,0.385165 -0.49116,0.212055 -0.20497,0.385663 0.63665,0.385663 0.84162,0 1.53014,-0.173608 1.53014,-0.385663 0,-0.212081 -0.28619,-0.385165 -0.63665,-0.385165 z"
       style="fill:#ff0000;stroke-width:0.14119276" />
  </g>
</svg>
